<?xml version="1.0" encoding="utf-8"?>
<!-- Generator: Adobe Illustrator 21.0.0, SVG Export Plug-In . SVG Version: 6.00 Build 0)  -->
<svg version="1.1" id="Layer_1" xmlns="http://www.w3.org/2000/svg" xmlns:xlink="http://www.w3.org/1999/xlink" x="0px" y="0px"
	 viewBox="0 0 512 512" style="enable-background:new 0 0 512 512;" xml:space="preserve">
<style type="text/css">
	.st0{fill:#5DB0E0;}
	.st1{fill:#B4E6F9;}
	.st2{fill:#689D21;}
	.st3{fill:none;}
	.st4{fill:#561616;stroke:#000000;stroke-miterlimit:10;}
	.st5{font-family:'MarkerFelt-Wide';}
	.st6{font-size:72px;}
	.st7{fill:#002395;}
	.st8{fill:#007A4D;}
	.st9{fill:#DE3831;}
	.st10{fill:#FFB612;}
	.st11{fill:#FFFFFF;}
	.st12{fill:#000036;}
	.st13{fill:#010365;}
	.st14{fill:#0C1B98;}
	.st15{fill:#8A7608;}
	.st16{fill:#2D40B3;}
	.st17{fill:#E7CE08;}
</style>
<g id="layer1">
	<path class="st0" d="M218.5,510.4c-18.6-2.4-23-3.3-35-6.8c-40.9-11.9-76.6-32.8-106.4-62.5C45.6,409.8,25.2,377.1,12,337
		c-9.1-27.6-11.5-44.5-11.5-80.5c0-36.5,2.5-54.2,11.7-82.2c5-15.5,15.5-38.3,24.3-52.8C50.2,98.7,73.4,72.3,95,55.1
		c11.5-9.3,27.5-20.1,29.5-20.1c0.8,0,2.6-1,4.2-2.3c3.6-3,26.8-14.7,29.1-14.7c1,0,2.2-0.4,2.8-0.9c0.5-0.5,3.6-1.7,6.9-2.6
		c9.1-2.4,10.5-2.6,10.5-1.5c0,0.5-0.3,0.9-0.7,0.8c-0.5,0-3.4,1.1-6.5,2.5c-3.2,1.5-6.9,2.9-8.2,3.3C160,20.2,138.7,30.2,136,32
		c-0.8,0.6-2.9,1.7-4.6,2.5c-5.1,2.3-26.6,17.4-31.1,21.8c-2.4,2.3-4.3,4.9-4.3,6c0,1-0.4,1.5-1,1.2c-0.5-0.3-1-0.1-1,0.6
		c0,0.7-1.2,2.6-2.7,4.2c-2.5,2.5-2.8,3.6-2.8,9.7c0,5.7-0.4,7.4-2.8,11c-1.5,2.3-2.7,4.7-2.7,5.4s-0.4,1.6-0.9,2.1
		c-1.3,1.5-8.3,19.4-9.3,24c-3.8,16.9-4.1,22.1-1.5,25.6c1.5,2.1,1.8,3.2,1,4c-0.8,0.8-1.4,0.5-2.3-1.1c-0.6-1.2-1.4-1.9-1.8-1.6
		c-0.3,0.4-1.6-0.3-2.8-1.5l-2.2-2.1l-2.6,5.2c-3.3,6.6-3.3,7.4,0.1,6.5c1.6-0.4,3.5-0.8,4.3-0.8c0.8,0,2.5-0.6,3.9-1.3
		c1.5-0.8,2.9-1,3.4-0.5c1.3,1.3-1.1,5.1-2.8,4.5c-1.1-0.5-1.5,1-1.7,7.8c-0.2,4.5,0,9.9,0.4,11.8c0.4,1.9,0.9,5.8,1.2,8.5
		c0.2,2.8,1.1,7,1.9,9.5c0.8,2.5,1.8,7.7,2.1,11.5c0.5,5.2,1.8,9.2,4.7,15.5c2.2,4.7,4.5,10.7,5,13.3c0.5,2.7,1.8,6,2.9,7.4
		c1.1,1.4,2,3.1,2,3.8s0.6,1.8,1.4,2.4c0.8,0.7,1.7,2.4,2.1,3.9s2,4.5,3.6,6.7c1.6,2.2,4,5.4,5.2,7.2c8.2,11.9,11.8,16.1,22.1,26.7
		c6.4,6.5,11.6,12.4,11.6,13.2c0,0.7,2.4,3.1,5.3,5.3c6.5,4.8,10.4,9,10.9,11.6c0.2,1,1.9,2.9,3.8,4.2c5.9,3.7,9.1,6.5,10.2,8.7
		c0.5,1.2,3,3.7,5.6,5.6s9.6,8.3,15.6,14.2c6,6,11.5,10.8,12.2,10.8s1.9,0.8,2.6,1.8c0.7,0.9,3.5,3.3,6.1,5.2s7.8,5.8,11.5,8.6
		c3.7,2.7,9.2,6.3,12.2,7.8c3,1.6,7,4,8.9,5.3c1.8,1.4,5,2.9,7.1,3.4c3.4,0.8,10.5,3.7,14,5.8c6.1,3.6,19,8,24.1,8.1
		c0.9,0,1.9-0.9,2.2-2.1c0.8-2.9,2.7-1.4,2.7,2.1c0,6.1,2.3,13.6,5.4,17.5c4.5,5.8,7.9,12.4,7.3,14.5c-0.7,2.8,0.7,4.1,5.2,4.7
		c3,0.4,4.6,0.1,5.9-1c1.1-1,3.5-1.6,6.8-1.5c2.8,0,6-0.5,7-1c1.1-0.6,3.1-1.3,4.5-1.6c2.9-0.6,7.7-4.3,15.6-11.7
		c6.8-6.4,8.3-8.7,8.3-12.5c0-3.1,2.1-6,3.3-4.7c0.4,0.3,0.7,1.5,0.7,2.5c0,2.3,2,2.3,17-0.2c20.7-3.4,23-3.9,43.5-10
		c5.5-1.7,12.1-4.3,18.5-7.3c5.9-2.8,19.8-11.3,24-14.6c10.5-8.3,25.1-21.8,25.6-23.6c0.3-1.1,1.6-4.2,2.9-7
		c3.4-7.2,5.7-12.8,6.1-14.6c0.2-0.9,0.9-2.9,1.5-4.5c0.7-1.6,1.2-3.2,1.1-3.6c-0.1-0.5,0.2-0.8,0.8-0.8c1.3,0,0.5,6.2-1.2,9.2
		c-0.6,1.3-1.3,2.9-1.4,3.7c-1.4,8.4-15.9,37.6-26.9,54.1s-17.2,24.2-30.8,37.9c-21.3,21.6-42.2,37-67.2,49.4
		c-39.6,19.7-67.7,25.8-118,25.6C239.1,511.8,224.4,511.2,218.5,510.4z M87.9,439.9c1.1-2.4,1.1-3.6,0.1-5.7c-1-2.3-0.9-2.9,1.2-4.5
		c1.7-1.5,3.4-1.8,7-1.5c2.6,0.3,5.2,0.2,5.8-0.2c1.7-1,3.2-12.4,2-15.5c-1.4-3.8-1.2-8.1,0.5-9.5c0.8-0.7,1.5-1.9,1.5-2.7
		c0-0.8,1.4-2.8,3-4.3c3.4-3.2,3.7-5.9,1.2-10.9c-1.1-2.3-2.7-3.7-4.6-4.2c-1.6-0.5-4.7-2.5-6.8-4.6c-3.7-3.6-10.5-6.4-15.7-6.5
		c-1.4,0-2.5-0.7-2.8-1.8c-0.3-1-2.3-3.1-4.5-4.5c-3.7-2.5-4.1-2.5-5.2-0.9c-0.9,1.2-1.9,1.5-3.2,0.9c-1-0.5-2.1-0.9-2.4-0.9
		c-4.6-1.2-6.3-5.5-3.5-8.6c1.3-1.4,1.3-2.1-0.5-5.5c-1.1-2.2-2-4.5-2-5.1c0-2-7.9-8.4-11.1-9.1c-1.7-0.3-4.1-2-5.7-4
		c-1.5-1.9-3.8-4.6-5.2-6.1c-1.3-1.5-3.2-4-4-5.7c-1.1-2.2-2.1-2.9-3.9-2.7c-1.3,0.1-3.8-1-6.1-2.8c-3.7-2.9-3.8-2.9-4.3-0.9
		c-0.6,2.1-2.9,1.8-2.6-0.4c0.3-2.8-0.1-4.1-1.1-3.1c-1.1,1.1-1.6,10.6-0.7,12.1c0.4,0.6,1.1,5.2,1.6,10.3c0.6,5,1.4,9.7,1.9,10.3
		c0.5,0.7,1.2,2.7,1.6,4.6c0.9,5.1,13.7,31,19.4,39.3c2.7,4,6.4,10,8.2,13.3c5,9.2,10.9,16.9,22.7,30c9.3,10.2,14,14.4,16.3,14.5
		C86.3,443,87.1,441.6,87.9,439.9z M67.1,359.7c-0.1-1.2-1.5-0.9-1.9,0.4c-0.3,0.6,0.1,1,0.8,0.8C66.6,360.6,67.1,360.1,67.1,359.7z
		 M7,283.8c0-1.9-1.8-4.3-2.5-3.6c-0.4,0.3-0.2,1.6,0.5,2.7C6.2,285.3,7,285.6,7,283.8z M2.7,265.8c-0.2-2.4-0.4-0.5-0.4,4.2
		c0,4.7,0.2,6.6,0.4,4.3C2.9,271.9,2.9,268.1,2.7,265.8z M23.4,269.9c-0.8-1.4-2.4-1-2.4,0.6c0,0.9,0.6,1.2,1.5,0.9
		C23.3,271,23.7,270.4,23.4,269.9z M5.5,232c1.8,0,2.4-0.7,3-3.7c0.3-2,2.3-7,4.2-11c2-4.1,3.5-8.6,3.5-10.1s0.5-3.6,1.2-4.7
		c0.7-1.1,1.9-4.2,2.7-6.9c1-3.3,2.4-5.7,4.6-7.3c1.8-1.4,3-2.9,2.7-3.4c-1.1-1.8,1.8-8,4.4-9.6c1.5-1,4.4-3.2,6.5-5
		c3.8-3.4,6.2-3.7,5-0.7c-0.5,1.4-0.3,1.4,1.6,0.3c2.7-1.7,2.7-2.7-0.1-3.1c-1.4-0.2-2.5-1.5-3.3-3.8c-0.7-1.9-1.4-3.5-1.8-3.5
		c-0.3,0-1.7,1-3.1,2.3c-6.3,5.4-5.1,1,1.8-7.1c3-3.5,5.4-5.1,8.7-6.1c5.8-1.8,10.9-4.4,10.9-5.6c0-0.5,1-1.5,2.2-2.1
		c1.7-0.9,2.4-0.8,3.4,0.5c1.4,1.9,2.9,0.5,2-1.9c-0.3-0.8-0.2-1.7,0.3-1.9c0.4-0.3,0.8-1.9,0.9-3.6c0-2.3-0.4-3-1.9-3
		c-1,0-1.9,0.4-1.9,0.9c0,1.3-2.8,2.2-3.5,1.1c-0.7-1.1,2.4-4.2,3.6-3.5c0.5,0.4,0.9,0.1,0.9-0.4c0-0.6-0.8-1.1-1.9-1.1
		c-2.4,0-5.7-4.8-4.3-6.2c0.7-0.7,0.7-1.8-0.1-3.5l-1-2.4l-3.3,3.2c-4.1,4-7,3.4-6-1.1c0.5-2.8,0.4-2.9-1.4-1.8
		c-2.2,1.4-8.2,12.5-9.4,17.3c-0.4,1.7-2.2,5.5-4,8.5c-1.8,3-3.9,7.6-4.6,10.3c-1.2,4.4-1.9,5.1-4.6,4.8
		c-1.2-0.1-6.1,12.5-10.7,27.5c-3.2,10-7.4,29.8-8.3,38.7C4,227,3.3,230,2.9,230c-0.5,0-0.8,1.5-0.8,3.3c0.1,2.3,0.3,2.6,0.6,1
		S3.8,232,5.5,232z M56,105c0-1.3,1-2.4,2.5-3c2.6-1,2.7-1.1,2.9-6.1c0.1-2.5-0.1-2.7-0.9-1.4c-0.5,1-2.7,3.9-4.7,6.5
		c-2.1,2.6-3.5,5-3.1,5.4C54.1,107.7,56,106.9,56,105z M71,86.8c0-1.4-1.6-0.9-4.4,1.3c-2.1,1.7-2.4,2.4-1.4,3
		C66.5,91.9,71,88.6,71,86.8z"/>
	<path class="st0" d="M360.5,415.1c-0.3-0.6,0.3-1.5,1.4-2.1c1.2-0.6,2.2-0.6,2.6-0.1c0.3,0.6-0.3,1.5-1.4,2.1
		C361.9,415.6,360.9,415.6,360.5,415.1z"/>
	<path class="st0" d="M393.5,410c-0.4-0.6-0.3-1.6,0.3-2.2c0.6-0.6,1.2-0.6,1.7,0.2c0.4,0.6,0.3,1.6-0.3,2.2S394,410.8,393.5,410z"
		/>
	<path class="st0" d="M365.5,408.7c0.3-0.7,0.1-3.4-0.4-6c-1.3-7.2,1.8-7.2,3.4,0c0.8,3.9-0.1,7.3-2,7.3
		C365.7,410,365.3,409.4,365.5,408.7z"/>
	<path class="st0" d="M402.6,409.2c-0.3-0.6,0.1-1.5,0.8-2.1c0.8-0.7,1.7-0.8,2-0.3c0.3,0.6-0.1,1.5-0.8,2.1
		C403.8,409.6,402.9,409.7,402.6,409.2z"/>
	<path class="st0" d="M281.5,403.1c-0.9-1.8-1.1-3.2-0.5-3.6c0.5-0.3,1.6,0.8,2.5,2.4c0.9,1.8,1.1,3.2,0.5,3.6
		C283.5,405.8,282.4,404.7,281.5,403.1z"/>
	<path class="st0" d="M393,403.6c-1.1-2.9,0.3-7.1,2.6-8c2.1-0.8,2.6,1.1,0.8,2.8c-1,1.1-1.4,2.5-1,4.1
		C396.2,405.8,394.2,406.7,393,403.6z"/>
	<path class="st0" d="M405.7,404.4c-0.9-1,1.5-5.4,3-5.4c1.1,0,1.1,0.6-0.2,3C406.9,405.2,406.7,405.3,405.7,404.4z"/>
	<path class="st0" d="M278.3,397.7c-2.1-2.6-2.4-3.7-1.1-3.7c1.6,0,4.1,3.7,2.9,4.4C279.6,398.7,278.8,398.4,278.3,397.7z"/>
	<path class="st0" d="M410.6,391.5c0.4-0.8,1.2-1.5,2-1.5s1.1,0.6,0.8,1.5c-0.4,0.8-1.2,1.5-2,1.5
		C410.6,393,410.3,392.4,410.6,391.5z"/>
	<path class="st0" d="M276.4,388.6c-0.4-1,0-2.4,1-3.5c0.9-1,1.3-2.1,1-2.4c-0.4-0.4-0.2-1.2,0.4-1.9c0.6-0.7,1.1-1.6,1.1-2
		c0.1-0.5,0.3-0.8,0.6-0.8c0.3,0,0.8,0,1.1,0c0.4,0,0.1,0.6-0.5,1.3c-0.6,0.8-0.8,1.7-0.5,2c0.3,0.3,0.2,1.2-0.2,1.9
		c-0.5,0.7-1,2.2-1.1,3.3C278.8,389.4,277.2,390.6,276.4,388.6z"/>
	<path class="st0" d="M397.5,386.7c-0.8-1.8,2.2-8,3.4-7.2c0.9,0.5-0.9,6.8-2.2,8.1C398.3,388,397.8,387.6,397.5,386.7z"/>
	<path class="st0" d="M402.6,379.2c-0.6-1,7.4-6.5,8.2-5.8c0.8,0.8-1.9,3.6-4.9,5.2C404.4,379.3,402.9,379.6,402.6,379.2z"/>
	<path class="st0" d="M416.5,376.8c0.1-1.3,0.6-2.1,1-1.8c1.4,0.8,1.3,4,0,4C416.9,379,416.4,378,416.5,376.8z"/>
	<path class="st0" d="M281.6,376.2c-0.3-0.6,0.1-1.5,0.8-2.1c0.8-0.7,1.7-0.8,2-0.3c0.3,0.6-0.1,1.5-0.8,2.1
		C282.8,376.6,281.9,376.7,281.6,376.2z"/>
	<path class="st0" d="M415.7,366.4c-0.8-1.4,0.8-3.7,2.2-3.3c0.8,0.3,0.8,1-0.2,2.3C416.9,366.5,416,366.9,415.7,366.4z"/>
	<path class="st0" d="M282.5,362.1c-0.4-0.8-0.1-1.9,0.8-2.8c1.9-2,3-0.1,1.3,2.2C283.6,362.9,283.1,363,282.5,362.1z"/>
	<path class="st0" d="M386.5,358.1c0.3-0.5,0.1-1.2-0.5-1.6c-0.6-0.3-0.8-2.4-0.5-4.6c0.3-2.2,0-4.9-0.5-6c-0.6-1.1-0.7-2.5-0.3-3.2
		c0.4-0.6,0.8-1.5,0.8-1.9c0-0.5,0.3-0.8,0.8-0.8c0.4,0,1,0,1.4,0s0.2,0.5-0.4,1.1c-0.9,0.9-0.8,1.9,0.3,4.1c1,1.8,1.2,3.4,0.6,4.6
		c-0.5,0.9-0.8,3.4-0.6,5.5c0.2,2-0.1,3.7-0.7,3.7C386.3,359,386.1,358.6,386.5,358.1z"/>
	<path class="st0" d="M282.2,355.3c0.1-0.5-0.3-1.8-1-3c-1.1-1.9-1-2.3,0.3-2.3c0.8,0,1.5,0.3,1.6,0.8c0,0.4,0.2,1.7,0.5,3
		c0.2,1.2-0.1,2.2-0.6,2.2C282.4,356,282.1,355.7,282.2,355.3z"/>
	<path class="st0" d="M268.5,333.9c-0.4-0.6-0.5-1.3-0.2-1.6c0.7-0.7,2.7,0.6,2.7,1.8S269.3,335.3,268.5,333.9z"/>
	<path class="st0" d="M267.8,324.3c-0.5-3-0.2-6.3,0.7-6.3c1.3,0,1.7,5.7,0.5,6.5C268.4,324.9,267.9,324.8,267.8,324.3z"/>
	<path class="st0" d="M268.5,309.9c-0.4-1.2-0.2-2.6,0.4-3.2c1-1,1.3-0.6,2.7,4.1C272.2,312.9,269.2,312.1,268.5,309.9z"/>
	<path class="st0" d="M411.2,309.9c0.2-0.7,1-1.5,1.7-1.7c0.8-0.3,1.2,0.1,0.9,0.9c-0.2,0.7-1,1.5-1.7,1.7
		C411.3,311.1,410.9,310.7,411.2,309.9z"/>
	<path class="st0" d="M265.3,307c0.1-1.1,0.8-2,1.5-2c1.1,0,1.2,0.3,0.3,1.3c-0.6,0.8-0.8,1.7-0.4,2c0.3,0.4,0.1,0.7-0.5,0.7
		S265.2,308.1,265.3,307z"/>
	<path class="st0" d="M207.5,302c-0.8-1.3,2-2.4,4.1-1.6c2,0.8,0.9,2.6-1.6,2.6C209,303,207.8,302.5,207.5,302z"/>
	<path class="st0" d="M420.7,298.4c-0.3-0.4-0.1-1.6,0.5-2.8c0.7-1.1,1.3-2.3,1.3-2.6c0.5-2.7,1.9-5,3.1-5s1.2,0.5-0.3,3.3
		c-0.9,1.7-1.8,3.8-1.9,4.6C423.1,297.7,421.5,299.2,420.7,298.4z"/>
	<path class="st0" d="M495.5,288.1c-0.3-0.6-0.3-1.6,0-2.1c0.4-0.6,0-2.4-0.9-4.1c-1.3-2.5-1.3-3.1-0.1-3.5c2.5-1,3.5,0.6,3.2,5.1
		C497.4,288.2,496.6,289.8,495.5,288.1z"/>
	<path class="st0" d="M168.5,281c-1-1.1-1.5-2.3-1.2-2.7c0.8-0.7,4.7,2.5,4.7,3.9S170.4,283.1,168.5,281z"/>
	<path class="st0" d="M511.3,277.5c0-2.2,0.2-3,0.4-1.7c0.2,1.2,0.2,3,0,4C511.4,280.7,511.2,279.7,511.3,277.5z"/>
	<path class="st0" d="M159,271.5c-1.3-1.4-2-3-1.6-4c0.6-1.7,2.6-1.2,2.6,0.7c0,0.6,0.7,1.9,1.6,2.9
		C164,273.8,161.6,274.2,159,271.5z"/>
	<path class="st0" d="M403.4,266.6c-0.4-1-0.2-2.2,0.4-2.8c0.8-0.8,1.3-0.7,1.8,0.6c0.4,1,0.2,2.2-0.4,2.8
		C404.4,268,403.9,267.9,403.4,266.6z"/>
	<path class="st0" d="M156.1,261.6c-0.7-0.8-0.8-1.7-0.3-2c0.6-0.3,1.5,0.1,2.1,0.8c0.7,0.8,0.8,1.7,0.3,2
		C157.6,262.7,156.7,262.3,156.1,261.6z"/>
	<path class="st0" d="M510.6,255.5c-0.3-0.9-0.5-3.5-0.5-5.8c0.1-4,0.2-4,0.9,1.3C511.9,256.7,511.7,258.3,510.6,255.5z"/>
	<path class="st0" d="M160.5,246.8c-0.2-0.7-0.8-3.9-1.3-7c-0.7-4.5-0.6-5.8,0.4-5.8c1.4,0,2,1.5,2.9,8.2c0.4,2.8,0.2,4.9-0.5,5.3
		C161.5,247.8,160.8,247.5,160.5,246.8z"/>
	<path class="st0" d="M386.6,225.5c-0.3-0.9,0-1.5,0.8-1.5c0.8,0,1.6,0.7,2,1.5c0.3,0.9,0,1.5-0.8,1.5S387,226.3,386.6,225.5z"/>
	<path class="st0" d="M161.9,221.2c0.5-0.9,1.9-2.6,3-3.6c2.7-2.5,2.8-0.1,0.2,3.2C162.8,223.5,160.5,223.8,161.9,221.2z"/>
	<path class="st0" d="M370.2,214.5c-1.7-3.6,0.4-4.1,2.3-0.5c1.3,2.4,1.3,3,0.2,3C371.9,217,370.8,215.9,370.2,214.5z"/>
	<path class="st0" d="M224.8,1.3c1.2-0.2,3-0.2,4,0c0.9,0.3-0.1,0.5-2.3,0.4C224.3,1.7,223.5,1.5,224.8,1.3z"/>
	<path class="st0" d="M234.3,0.3c1.5-0.2,3.9-0.2,5.5,0c1.5,0.2,0.2,0.4-2.8,0.4S232.7,0.5,234.3,0.3z"/>
</g>
<g id="layer2">
	<path class="st1" d="M304.5,453c-0.9-1.4,4.1-3.8,9.1-4.5c2.7-0.3,6.5-0.8,8.4-1c5.9-0.7,6.5-1,11.6-4.3
		c5.2-3.3,18.8-16.3,20.6-19.6c0.5-1,1.1-2.9,1.3-4.3c0.3-2.9,1.2-3.9,5.6-6.1c4.8-2.4,6-5.5,4.7-11.9l-1.1-5.3l5.3-4.7
		c2.9-2.7,7.4-5.9,9.9-7.3s5.3-3.8,6.2-5.5c2-3.4,2.8-16.6,1.2-18.7c-0.6-0.7-1.3-5.2-1.7-10c-0.6-8.3-0.5-8.9,2.3-14.3
		c1.7-3.2,4.1-6.9,5.5-8.4c1.4-1.4,4.4-4.8,6.6-7.6c2.2-2.7,5.8-6.3,8-8c3.7-2.9,14-15.8,14-17.7c0-0.5,1.3-3.5,2.9-6.7
		c1.5-3.1,3.1-7.4,3.5-9.5c0.6-3.3,0.5-3.7-1.1-3.3c-1,0.3-3.4,0.9-5.3,1.2c-1.9,0.4-4,1.1-4.5,1.6c-0.6,0.4-3.3,1.1-6.1,1.4
		c-4.9,0.7-5.2,0.6-7.3-2.3c-1.1-1.7-1.9-3.6-1.6-4.4c0.6-1.4-6.4-9.5-10.6-12.2c-1.8-1.1-3.1-3.2-3.9-6.4c-0.7-2.9-2.3-5.7-4.1-7.4
		c-2.4-2.2-2.9-3.5-2.9-7.3c0-5-2-9.9-4.5-10.8c-0.8-0.4-1.5-1.2-1.5-2c0-0.7-2-5.5-4.5-10.5s-4.5-9.4-4.5-9.7c0-0.4-0.9-1.8-2-3.2
		c-2.1-2.7-2.7-6.8-1-7.8c0.5-0.3,2.2,1.4,3.7,3.7c2.3,3.6,2.8,4,3.1,2.3c0.9-4.4,4.2-5.6,4.2-1.5c0,1.1,2,5.1,4.5,9
		c2.5,3.9,4.5,7.7,4.5,8.5c0,0.9,0.7,1.8,1.5,2.2c2,0.7,5.5,7.5,5.5,10.7c0,1.5,1.7,4.4,4,7.1c2.2,2.5,4,5.2,4,6
		c0,0.7,1.2,2.7,2.6,4.4c2,2.4,2.8,4.9,3.6,10.9c1.2,9,2.7,11.5,5.6,8.9c1-0.9,2.5-1.7,3.3-1.8c0.8,0,3.4-1.1,5.9-2.4
		c2.5-1.3,6.4-3.3,8.7-4.4c2.3-1.1,4.6-2.8,5.2-3.9c0.6-1.1,2.9-2.7,5.1-3.6c2.2-0.9,4-2.1,4-2.6c0-0.6,0.8-1.4,1.7-1.7
		c2.6-1,5.3-4.1,5.3-6.2c0-1.1,0.5-2.3,1-2.6c0.6-0.3,1.7-1.9,2.5-3.5c1.5-2.9,1.4-3-2.9-7.2c-2.4-2.4-4.8-5.1-5.3-6.1
		c-0.9-1.7-1.1-1.7-2.7,0.7c-1.3,2.1-2.4,2.6-5.9,2.6s-4.7-0.6-7.5-3.5c-1.7-2-3.2-4.6-3.2-5.9c0-1.2-1.1-3.3-2.5-4.6
		s-2.5-2.8-2.5-3.3s-0.7-2.4-1.6-4.3c-1.6-3.2-1.5-3.6,0.1-5.4c1-1.1,2.5-2,3.4-2c2.4,0.1,5.6,3.1,7,6.5c1.9,4.9,7.8,9,13,9
		c3.8,0,4.6,0.4,6.1,2.9c1.9,3.6,8.2,5.6,17.6,5.6h6.1l3.1,4.9c1.8,2.7,3.9,5.2,4.7,5.5c1.1,0.4,1.4,1.3,0.9,3c-0.7,3,1.3,4.4,3,2
		c1.3-1.7,1.4-1.6,2.5,0.4c0.6,1.1,1.1,4.6,1.1,7.7c0,5,5.4,34.2,6.5,35.3c1,1.1,2.5-5.5,3.1-13.6c0.4-4.8,1.2-9.4,1.9-10.2
		c0.7-0.8,2.4-4.7,3.7-8.7c2.4-7,4.3-10.3,5.8-10.3c1.3,0,4.2,25.2,3.9,35.3c-0.4,21.2-5.2,52-9.4,61.2c-0.8,1.6-2.6,6.4-4.1,10.5
		c-3.7,10.4-11.2,27.1-13.1,29.2c-0.8,1-1.9,1.5-2.4,1.3c-0.4-0.3-2.9,1.6-5.6,4.1c-10.3,10-25.9,20.9-37.3,26
		c-1.4,0.7-5.5,2.6-9.1,4.3c-3.7,1.7-7.4,3.1-8.3,3.1c-0.8,0-3.3,0.6-5.3,1.4c-2.1,0.7-8.3,2.4-13.8,3.6c-5.5,1.2-11.6,2.6-13.5,3.1
		c-4.8,1.2-24,3.9-27.9,3.9c-2.6,0-3.6,0.7-5.9,4.3c-4.8,7.6-23.9,23.3-26,21.3c-0.3-0.3-1.1-0.1-1.9,0.5c-0.7,0.7-3,1.3-5.1,1.5
		c-6,0.6-8.4,1.1-13.5,2.7C307.1,453.1,304.8,453.4,304.5,453z M401.3,408.1c1.8-0.7,3.7-3.9,8.2-14.3c3.1-7.3,6.6-15,7.6-17.1
		c2-4.1,2.6-10.7,0.9-10.7c-0.5,0-1,0.5-1,1.1c0,1.8-8.3,10-12.2,12c-4.1,2.1-5.2,4.5-4.9,10.5c0.2,3.1-0.4,4.8-2.3,7.1
		c-1.8,2.2-2.6,4.3-2.6,7C395,409.2,396.2,410,401.3,408.1z"/>
	<path class="st1" d="M420.6,453.2c-0.3-0.6,0.1-1.5,0.8-2.1c0.8-0.7,1.7-0.8,2-0.3c0.3,0.6-0.1,1.5-0.8,2.1
		C421.8,453.6,420.9,453.7,420.6,453.2z"/>
	<path class="st1" d="M87.1,450.6c-0.7-0.8-0.8-1.7-0.3-2c0.6-0.3,1.5,0.1,2.1,0.8c0.7,0.8,0.8,1.7,0.3,2
		C88.6,451.7,87.7,451.3,87.1,450.6z"/>
	<path class="st1" d="M300.5,451.1c-0.7-1.2,1.2-2.4,2.5-1.6c1.1,0.7,0.4,2.5-1,2.5C301.5,452,300.9,451.6,300.5,451.1z"/>
	<path class="st1" d="M428.6,446.1c-0.7-1.1,2.9-5.7,5.4-7.1c2.8-1.5,3.3,0.4,0.9,3.4C432.4,445.5,429.3,447.4,428.6,446.1z"/>
	<path class="st1" d="M438.6,436.1c-0.7-1.1,2.9-5.7,5.4-7.1c2.8-1.5,3.3,0.4,0.9,3.4C442.4,435.5,439.3,437.4,438.6,436.1z"/>
	<path class="st1" d="M293.2,434.4c-2.5-1.7-5.4-6.8-4.5-7.7c0.6-0.7,6,4,7.4,6.5C297.4,435.5,295.8,436.2,293.2,434.4z"/>
	<path class="st1" d="M450.6,423.2c-0.3-0.6,0.1-1.5,0.8-2.1c0.8-0.7,1.7-0.8,2-0.3c0.3,0.6-0.1,1.5-0.8,2.1
		C451.8,423.6,450.9,423.7,450.6,423.2z"/>
	<path class="st1" d="M286.4,418.3c-1.5-2.5-2.7-3.1-10.7-4.6c-5-1-10.2-2.7-11.5-3.8c-1.4-1-3.2-1.9-4-1.9c-0.9,0-2.3-0.6-3.1-1.4
		c-2-1.8-11.5-5.6-14.1-5.6c-1,0-3.3-1.2-5-2.7c-1.7-1.4-6-4-9.4-5.7c-6.4-3.2-14.7-8.9-26.1-18.3c-3.6-2.9-6.8-5.3-7.3-5.3
		s-6-5.1-12.4-11.2c-6.3-6.2-13.4-12.8-15.7-14.7s-4.9-4.6-5.7-6c-0.9-1.4-4.2-4.3-7.5-6.4c-3.5-2.3-5.9-4.5-5.9-5.6
		c0-1.8-6-7.9-12.2-12.5c-2.1-1.5-3.8-3.3-3.8-4c0-0.8-5.2-6.7-11.6-13.2c-10.3-10.6-13.9-14.8-22.1-26.7c-1.2-1.8-3.6-5-5.2-7.2
		c-1.6-2.2-3.2-5.2-3.6-6.7c-0.4-1.5-1.3-3.2-2.1-3.9c-0.8-0.6-1.4-1.7-1.4-2.4s-0.9-2.4-2-3.8c-1.1-1.4-2.4-4.7-2.9-7.4
		c-0.5-2.6-2.8-8.6-5-13.3c-2.9-6.3-4.2-10.3-4.6-15.5C71.1,204.7,70,199,69,196c-2-6.2-2.8-12.1-3.6-25.9
		c-0.6-10.5-1.5-12-7.1-12.1c-3.5,0-5.3-1.7-2.9-2.6c0.9-0.3,1.6-1.2,1.6-2c0-0.8,0.5-1.4,1-1.4c0.6,0,1,0.5,1,1
		c0,0.6,1.5,0.8,4,0.4c2.6-0.4,4.5-0.2,5.5,0.6c0.9,0.8,1.5,0.9,1.5,0.2c0-0.6-0.5-1.4-1-1.7c-0.6-0.3-1-1.5-1-2.6
		c0-1.2-0.7-1.9-1.9-1.9c-2.2,0-4.5-2.5-3.6-4c0.3-0.5,0.1-1-0.5-1c-0.6,0-1.3,0.7-1.7,1.5c-0.3,0.9-1.8,2.2-3.4,3.1
		c-4.5,2.3-14.9,5.3-15.4,4.4c-0.8-1.3,2.8-3.7,8.1-5.4c2.9-0.9,6-2.6,7-3.8c1.1-1.1,3.6-3.1,5.7-4.4c2-1.4,3.7-3.2,3.7-4.2
		s0.5-2.3,1.1-2.9c0.6-0.6,1.5-3,2-5.2c0.5-2.3,1.3-5.8,1.7-7.8c1-4.5,8-22.4,9.3-23.8C80.6,94,81,93,81,92.3c0-0.8,1-2.8,2.3-4.4
		c1.7-2.4,2.2-4.4,2.2-9.2v-6.1l3.5-0.2c5.3-0.3,6.7,1.4,3.4,4.1c-2.7,2.2-2.8,2.3-1.1,4.9c2.1,3.1,5,3.3,9.3,0.7
		c2.8-1.7,3.4-1.8,5.3-0.5c1.5,1.1,2.6,1.2,4,0.5c2.4-1.4,6.1-7.6,6.1-10.5c0-1.2,1.1-3.3,2.4-4.5c1.3-1.3,2.7-3.8,3.1-5.7
		c0.3-1.9,1.4-3.8,2.3-4.1c0.9-0.4,2.3-1.5,3-2.5c0.7-1,1.9-1.8,2.5-1.8c0.7,0,1.8-0.9,2.5-2c0.7-1.1,2.3-2,3.5-2
		c2.9,0,7.8-3.5,12.4-8.9c1.9-2.3,4.1-4.1,4.9-4.1c1.3,0,10.4-4.8,10.4-5.4c0-0.1-1.3-0.1-3,0.2c-2.4,0.3-3.2,0-3.9-1.9
		c-0.6-1.7-0.5-3.1,0.5-4.6c0.8-1.3,1.1-2.3,0.7-2.3c-0.5,0-5.9,2.5-12,5.4c-6.2,3-11.5,5.1-11.8,4.5c-0.8-1.2,0.3-2.9,1.9-2.9
		c1.2,0,19.1-8.4,23.6-11c6.3-3.6,17.8-7.6,36.5-12.5C210.9,1.5,267-1.3,285,1c4.1,0.6,11.6,1.5,16.5,2
		c19.6,2.1,53.6,13.3,74.5,24.7c11.6,6.3,19.9,11.3,20.5,12.4c0.4,0.6,1.7,1.4,2.9,1.8c7.8,3,40.3,31.7,50.9,45.1
		c2.9,3.5,5.9,7.2,6.7,8.1c0.8,0.8,2.2,2.6,3,3.9c0.8,1.2,2,2.8,2.5,3.4c0.6,0.6,2.2,3,3.7,5.3c3.3,5,2,6.8-1.3,2.1
		c-1.3-1.8-2.7-3.7-3.1-4.3c-2.3-2.8-4.5-5.7-6.3-8c-1.1-1.5-3.4-4.2-5.1-6c-1.8-1.8-3.3-3.7-3.5-4.2c-0.2-0.5-2.8-2.8-5.6-5.2
		c-2.9-2.4-5.3-4.9-5.3-5.5c0-0.7-2.1-2.8-4.7-4.9c-2.7-2-7-5.5-9.8-7.7c-2.7-2.2-5.5-4-6.1-4c-0.6,0-3.2-1.1-5.8-2.5
		c-2.6-1.4-5.2-2.5-5.8-2.5c-0.6,0-2-0.8-3.1-1.8c-1.4-1.2-3.8-1.7-8.6-1.9c-3.6,0-9.4-0.4-12.8-0.7c-5.2-0.4-6.2-0.2-6.5,1.2
		c-0.2,1.3-1.6,1.7-6.3,1.9c-3.3,0.1-7.1-0.3-8.5-0.9c-3.9-1.8-7-5-7-7c0-1-0.6-1.8-1.4-1.8s-2.8-1.1-4.3-2.4
		c-4.6-4-0.6-4.4,8.5-0.7c7.8,3.1,14.2,4.8,14.2,3.8c0-2-24-12-32.5-13.6c-2.2-0.4-5.2-1.5-6.7-2.5c-4.8-3.2-33.2-2.5-35,0.9
		c-0.5,0.8-2.5,1.7-4.4,2.1c-2.3,0.4-5.5,2.5-9.4,6c-3.2,3-6.4,5.4-7.2,5.4c-0.8,0-2.3,0.9-3.3,2c-1,1.1-2.5,2-3.4,2
		c-0.9,0.1-3.4,0.9-5.6,2c-2.2,1.1-4.5,1.9-5.2,2c-2.1,0-2.5,4-0.8,7.6c0.9,1.9,1.3,3.9,1,4.4s0.6,1.3,2.2,1.6
		c2,0.5,4.2-0.1,8.5-2.4l5.9-3.1l2.9,4.2c1.6,2.3,3.8,5.4,4.9,6.9c1.2,1.4,2.1,3.3,2.1,4.1c0,2.3,1.6,2.9,3,1.2
		c0.7-0.8,2.2-1.5,3.4-1.5c3.1,0,4.6-1.9,4.6-5.6c0-1.8,0.5-3.6,1-3.9c0.8-0.5,0.7-1.1-0.1-2.1c-1.4-1.7,1-2.9,4.4-2
		c1.8,0.4,1.6,0.1-1-2c-1.8-1.4-3.3-3.5-3.3-4.6c0-2.8,6.1-8.4,9.9-9.1c2.2-0.5,3.1-1.2,3.1-2.6c0-3,4.4-5.3,8.8-4.5
		c6.9,1.2,10.8,5.5,6.5,7.1c-1,0.4-4,2-6.6,3.6c-3.4,2.1-4.5,3.3-3.8,4c0.6,0.6,1.1,1.9,1.1,2.9c0,3.4,5.4,5,15.1,4.4
		c5.3-0.3,9.1-0.2,9.4,0.4c0.3,0.6,1.4,1,2.5,1c1.8,0,3.4,2.3,2.3,3.4c-0.4,0.3-1.6,0.6-2.8,0.6c-1.1,0-2.6,0.5-3.2,1.1
		c-0.8,0.8-2.5,0.8-6.2-0.1c-2.8-0.7-5.9-0.9-6.8-0.6c-1.5,0.6-1.5,0.8,0.1,1.9c1.2,0.9,1.7,2.3,1.4,4.2c-0.4,3.6-3.5,4.5-7,2.1
		c-2-1.4-2.4-1.4-3.9,0c-1.4,1.3-1.6,2.1-0.7,3.9c1.4,3,0.4,5.5-2.1,5.5c-1.1,0-2.3,0.4-2.6,1c-0.8,1.3-5.8,1.3-7.2-0.1
		c-0.8-0.8-3.1-0.4-8.2,1.2c-6.6,2.1-7.3,2.2-9.9,0.7c-2-1.1-3.4-1.3-5.5-0.6c-5.8,2-13.1-4.6-9.7-8.7c1.9-2.2,0.8-3.8-1.5-2.2
		c-1.7,1.3-1.8,1.8-0.6,5.7c1.1,3.7,1,4.4-0.5,6.1c-1,1.1-2.5,1.9-3.3,1.8c-5.6-0.5-8,0.2-8.3,2.3c-0.2,1.6-1,2.3-2.5,2.3
		c-1.2,0-3.2,1-4.5,2.2c-1.3,1.2-3.5,2.5-5.1,2.8c-1.5,0.4-3.2,1.5-3.7,2.5c-1.2,2.3-7.5,6-10.2,6c-1.1,0-2.7,0.8-3.4,1.8
		c-0.9,1.2-2.5,1.7-5.8,1.5c-5.4-0.2-6.1,1.2-1.2,2.1c7.2,1.4,11,10.8,7.5,18.2l-1.4,2.9l-11.8,0.2c-17.1,0.2-16.3-0.2-16.9,8.7
		c-0.3,4.2-1.1,8.2-1.8,9.1c-1,1.2-1,2.1-0.2,3.8c0.5,1.2,1.3,3,1.6,3.9c0.4,1.3,1.2,1.6,3.3,1.2c2.2-0.4,3.4,0,5.2,2
		c2.2,2.4,2.5,2.4,5.2,1.1c1.5-0.8,4.4-1.5,6.3-1.5c6.3,0,12.6-5.8,12.6-11.8c0-2.8,4.7-7.3,10.1-9.8c3.1-1.3,3.9-2.2,3.9-4.4
		c0-1.4,0.5-3.1,1.2-3.8c1.4-1.4,7.7-1.6,9.8-0.2c1,0.6,3,0,6.6-2.1c7.2-4.1,10.6-3.9,14.1,0.8c3.6,4.9,5.9,6.8,11,9.3
		c2.3,1.2,6.1,3.6,8.5,5.5c4.2,3.3,4.3,3.4,5.1,1.3c0.8-2.3-1.5-4.5-6.7-6.3c-1.7-0.6-3.6-2.3-4.5-4.1c-0.9-1.7-2.8-3.9-4.3-4.7
		c-2.2-1.3-2.8-2.3-2.8-5.2c0-2.8,0.5-3.8,2.4-4.7c3.3-1.4,9,1.2,11.1,5.1c0.8,1.7,3.4,3.8,5.9,5c2.4,1.2,6.3,3.5,8.5,5.2
		c3.3,2.3,4.1,3.5,4.1,6.1c0,4.1,5.6,11.7,8.8,11.8c2,0,2.2-0.4,2-4.2c-0.3-3.8-0.1-4.3,1.7-4.1c1.1,0.1,2.4-0.5,2.8-1.3
		c1-1.8,6.4-1.8,9.8,0c2.3,1.2,2.9,1.1,4.8-0.3c2-1.6,2.1-1.9,0.7-3c-2-1.7-2-4.1-0.1-6.7c0.8-1,1.5-2.5,1.5-3.3s2.1-3.8,4.6-6.7
		c4.7-5.6,7.4-6.6,10.3-4c2.7,2.4,5.4,2.3,18.4-0.6c3.6-0.8,5.2-0.7,6,0.1c0.9,1,0.8,1.5-0.3,2.4c-1.5,1.2-4.4,6.7-3.8,7.2
		c0.2,0.1,1.7,1,3.3,1.8c1.7,0.9,5.2,3.6,7.8,6.1c4.2,3.9,4.8,5,4.5,7.8l-0.3,3.3l-7,0.3c-6.1,0.2-7.7-0.1-12.9-2.8
		c-6.7-3.4-10.3-3.7-14.8-1.4c-1.8,0.9-4.2,1.4-5.9,1c-1.7-0.3-3.2,0-3.9,0.9c-0.8,1-3.1,1.5-6.1,1.5c-5.1,0-6,0.8-3.4,3
		c0.8,0.7,1.5,1.9,1.5,2.8c0,3.3,2.5,8.2,4.4,8.8c1.2,0.3,3.1,1,4.4,1.6c1.7,0.9,2.5,0.9,3.4,0c1.8-1.8,5.2-1.4,8.1,0.8
		c3,2.4,4.1,2.5,5.6,0.6c0.8-0.9,2.7-1.4,4.9-1.2l3.6,0.2l0.3,5.5c0.1,4-0.6,7.7-2.5,13l-2.8,7.4l-4.4,0.3c-2.4,0.2-5.4-0.2-6.7-0.9
		c-1.9-1-2.9-0.9-6,0.5c-3.6,1.6-4.1,1.6-9.5-0.4c-3.2-1.1-6.9-2-8.2-2c-1.4,0-2.7-0.4-3-0.9s-2.1-1.2-4-1.5
		c-1.9-0.4-3.9-1.3-4.6-2.1c-1.4-1.7-5.3-2-8.1-0.5c-1.3,0.7-1.9,2.1-1.9,4.3c0,1.8-0.5,3.8-1.2,4.5c-1.7,1.7-6.3,1.5-7.8-0.3
		c-0.7-0.8-3.1-1.8-5.3-2.2c-2.6-0.4-5.1-1.6-6.7-3.3c-3.3-3.6-6.1-5-10.2-5.1c-4.7,0-12.2-3.9-12.6-6.5c-0.2-1.1,0.6-2.8,1.7-3.8
		c1.6-1.5,1.8-2.2,0.9-4c-0.6-1.1-1.4-2.8-1.8-3.6c-0.4-0.9-1.8-1.4-3.1-1.2c-1.3,0.1-6.9,0.4-12.4,0.6c-13.1,0.4-21.5,1.5-24,3.2
		c-1.1,0.8-2.7,1.4-3.6,1.4c-0.9,0-2.7,0.9-4,1.9c-1.9,1.5-3.9,1.9-9.1,1.7c-3.6-0.1-7.3-0.8-8.2-1.5c-1.3-1.1-1.7-0.8-2.9,2.1
		c-1.5,3.6-3.1,5.2-7.9,7.8c-1.8,0.9-3.5,2.3-3.8,3.1c-0.4,0.8-1.2,2.4-1.8,3.6c-0.7,1.3-1.2,4-1.2,6.2c0,3.4-0.6,4.4-4.1,7.5
		c-2.3,1.9-5.4,3.8-7,4.1c-1.7,0.4-3.1,1.5-3.5,2.8c-0.3,1.2-1.9,3.4-3.5,4.9c-1.6,1.5-2.9,3.4-2.9,4.3c0,1-1.1,3-2.5,4.7
		c-1.4,1.6-2.5,3.5-2.5,4.2c0,0.8-1,2.6-2.2,4.1c-2,2.6-2,2.9-0.5,5.4c2.1,3.6,1.8,19.2-0.4,23.7c-1.4,2.7-1.4,3.3,0,5.3
		c1.1,1.8,1.2,2.7,0.3,4.1c-0.9,1.4-0.7,2.1,0.7,3.4c1,0.9,2.3,1.6,2.9,1.6s1.6,0.9,2.2,1.9c0.5,1.1,2.8,4.1,5,6.6s4,5.3,4,6.1
		c0,1.9,2.6,4.4,10.2,9.9c9.5,6.8,11.5,7.7,13.8,6.5c3.7-2,11.4-2.9,16.4-1.9c4.6,0.8,10.9-0.3,16.7-3.2c0.9-0.4,4.4-1.3,7.8-1.9
		c5.7-1,6.4-0.9,9.1,1c1.7,1.2,3,3,3,4c0,3,2.9,4,8.5,2.9c4.8-0.9,5.1-0.9,7.8,2.1c3,3.4,3.4,6.5,1.6,15.1c-1.9,8.7-1.6,9.5,5,16.4
		c3.4,3.5,6.1,7,6.1,7.9c0,0.9,1.1,4,2.5,6.8c1.7,3.5,2.4,6.2,2,7.9c-0.4,1.5-0.1,3,0.4,3.4c2.2,1.3,1.2,8-1.9,12.1
		c-1.6,2.1-3.2,5.4-3.6,7.2c-0.3,1.8-1,3.5-1.5,3.8c-1.5,0.9-1,7,0.9,9.5c4.3,5.8,9.3,15.1,8.8,16.4c-0.3,0.8-0.1,2.8,0.4,4.4
		C290.2,421,288.4,421.9,286.4,418.3z M290.8,158.8c-0.3-0.7-1.5-1.4-2.9-1.6c-2.3-0.2-2.3-0.2-0.5,1.3
		C289.8,160.3,291.3,160.5,290.8,158.8z M267.8,145.6c0.4-3.5-1.4-2.6-2,0.9c-0.4,1.6-0.1,2.4,0.6,2.2
		C267,148.5,267.6,147.1,267.8,145.6z M366,127.6c0-0.8-0.7-1.6-1.5-2c-1.7-0.6-1.8-0.4-0.9,1.8C364.4,129.4,366,129.5,366,127.6z
		 M227.6,97c3.1,0,4.4-0.4,4.4-1.4c0-0.7,0.7-1.9,1.5-2.6c2.1-1.7,1.9-2.9-0.5-2.3c-1.4,0.4-2.3-0.2-3.2-2.3
		c-1.5-3.5-8.7-11-10.1-10.6c-0.5,0.2-1.7,0-2.5-0.3c-1.2-0.4-1-1.1,1.3-3.5l2.9-3h-2.7c-1.9,0-3-0.7-3.6-2.2
		c-0.8-2.2-0.9-2.2-2.5,0.9c-1.5,3.1-1.5,3.3,0.5,5.2c1.2,1.1,1.8,2.5,1.4,3.1c-0.4,0.7,0.1,1.4,1.4,1.7c3.1,0.8,5.4,4.9,4.1,7.3
		c-0.6,1.1-1.7,2-2.4,2c-0.8,0-1.6,1.1-1.8,2.5c-0.4,2-0.1,2.5,1.4,2.5c1.2,0,2.2,0.9,2.5,2.1c0.4,1.2,1.1,1.8,2,1.5
		C222.5,97.3,225.2,97,227.6,97z M197.4,94.1c0.3-0.5,2.1-1.2,4-1.5c3.7-0.7,4.8-2.2,3.9-5.4c-0.2-1.1,0-2.3,0.6-2.6
		C208,83.3,207,82,204,82c-1.9,0-3.3,0.7-4,2c-0.6,1.1-1.9,2-2.9,2c-2.5,0-3.3,1.1-1.6,2.4c1.3,1,1.3,1.4,0.1,3.9
		c-1.3,2.3-1.3,2.7-0.1,2.7C196.3,95,197.1,94.6,197.4,94.1z M169.7,49.4c12.1-5.2,12.5-5.4,11.3-6.9c-0.8-1-1.8-1.1-3.3-0.5
		c-1.2,0.5-5.7,1.9-9.9,3.2c-7.7,2.2-9.9,4.3-5.5,5.1c1.2,0.2,2.5,0.5,2.9,0.6C165.6,50.9,167.6,50.3,169.7,49.4z"/>
	<path class="st1" d="M458.6,413.2c-0.3-0.6,0.1-1.5,0.8-2.1c0.8-0.7,1.7-0.8,2-0.3c0.3,0.6-0.1,1.5-0.8,2.1
		C459.8,413.6,458.9,413.7,458.6,413.2z"/>
	<path class="st1" d="M461.6,409.2c-0.3-0.6,0.1-1.5,0.8-2.1c0.8-0.7,1.7-0.8,2-0.3c0.3,0.6-0.1,1.5-0.8,2.1
		C462.8,409.6,461.9,409.7,461.6,409.2z"/>
	<path class="st1" d="M474.7,390.3c-0.4-0.6,0-1.8,0.7-2.8c0.8-1.1,1.6-1.4,1.9-0.8c0.4,0.6,0,1.8-0.7,2.8
		C475.8,390.6,475,390.9,474.7,390.3z"/>
	<path class="st1" d="M477.7,385.4c-0.9-1,2.5-7.4,4-7.4c1,0,0.8,1-0.7,4C478.9,386.2,478.7,386.4,477.7,385.4z"/>
	<path class="st1" d="M28.2,376.5c-0.9-2-0.9-2.5,0.2-2.5c0.7,0,1.8,1.1,2.4,2.5c0.9,2,0.9,2.5-0.2,2.5
		C29.9,379,28.8,377.9,28.2,376.5z"/>
	<path class="st1" d="M3,301c0-1.9,0.3-2.1,1.2-1.2c0.9,0.9,0.9,1.5,0,2.4S3,302.9,3,301z"/>
	<path class="st1" d="M2,295c0-1.9,0.3-2.1,1.2-1.2c0.9,0.9,0.9,1.5,0,2.4S2,296.9,2,295z"/>
	<path class="st1" d="M29.5,275.1c-0.7-1.2,1.2-2.4,2.5-1.6c1.1,0.7,0.4,2.5-1,2.5C30.5,276,29.9,275.6,29.5,275.1z"/>
	<path class="st1" d="M12.5,267c-0.8-1.3,2-2.4,4.1-1.6c2,0.8,0.9,2.6-1.6,2.6C14,268,12.8,267.5,12.5,267z"/>
	<path class="st1" d="M1.3,225.5c0-2.2,0.2-3,0.4-1.7c0.2,1.2,0.2,3,0,4C1.4,228.7,1.2,227.7,1.3,225.5z"/>
	<path class="st1" d="M2,217.5c0-1.5,0.4-2.4,1-2c1.3,0.8,1.3,3.2,0,4C2.4,219.9,2,219,2,217.5z"/>
	<path class="st1" d="M3,211c0-1.9,0.3-2.1,1.2-1.2s0.9,1.5,0,2.4C3.3,213.1,3,212.9,3,211z"/>
	<path class="st1" d="M505.1,200.9c-0.6-1.3-2-6.1-3.2-10.7c-1.6-6.1-1.9-8.6-1.1-9.4c1.4-1.4,3.2,2.7,5.7,13
		c1.3,5.3,1.4,7.7,0.7,8.4C506.4,203,505.8,202.6,505.1,200.9z"/>
	<path class="st1" d="M23.6,190.1c-0.3-0.5,0.5-1.6,1.9-2.5c2.4-1.6,4.5-0.6,2.2,1.1C25.3,190.6,24.1,191,23.6,190.1z"/>
	<path class="st1" d="M38.6,177.2c-0.3-0.6,0.1-1.5,0.8-2.1c0.8-0.7,1.7-0.8,2-0.3c0.3,0.6-0.1,1.5-0.8,2.1
		C39.8,177.6,38.9,177.7,38.6,177.2z"/>
	<path class="st1" d="M32.5,176.1c-0.2-0.5,1.6-2.7,4-5c4-3.6,5-4.1,7.8-3.6c2.7,0.5,3.6,0.2,5.5-2c1.2-1.4,2-3,1.7-3.5
		c-0.4-0.6,0-1,0.8-1c2.7,0,1,4.8-2.8,8.2c-5.2,4.6-6.4,5.1-8,3.8c-1.1-0.9-1.8-0.7-3.3,0.8C35.9,176.1,33.2,177.2,32.5,176.1z"/>
	<path class="st1" d="M498.3,176.3c0.4-0.3,0.2-1.2-0.4-2c-0.6-0.7-0.8-1.3-0.4-1.3s0.2-0.7-0.5-1.5c-0.7-0.8-0.9-1.5-0.5-1.5
		s0.2-0.6-0.4-1.4c-1.6-1.9-2.4-6.6-1.1-6.6c0.5,0,0.9,0.3,0.8,0.8c-0.1,0.4,0.3,1.7,1,3c0.7,1.2,1,2.2,0.6,2.2
		c-0.3,0-0.2,0.6,0.4,1.3c0.6,0.6,1.1,1.5,1.1,2c0.1,0.4,0.1,0.8,0.2,1c0.8,2.6,0.7,4.7-0.3,4.7C498.2,177,498,176.7,498.3,176.3z"
		/>
	<path class="st1" d="M426.4,172.2c-1.1-0.4-3.8-2.1-6-3.8l-3.8-3.2l1.2-4.9c1.4-5.4,1-6.8-4-13.4c-1.6-2-2.8-4.2-2.8-5
		c0-0.8-0.7-2.5-1.6-3.7c-2.7-3.9-1.1-6.9,5.1-9.8c5.2-2.5,5.7-2.5,9.2-1.1c3.1,1.2,3.9,2,4.1,4.7c0.3,2.5-0.1,3.3-1.7,3.7
		c-1.1,0.3-2.2,1.2-2.5,2c-0.7,1.6,1.8,5.9,4,6.7c0.8,0.3,1.4,1.2,1.4,2.1c0,0.8,0.6,1.5,1.4,1.5c1.3,0,5.6,4.9,5.6,6.4
		c0,0.4-0.9,1-2,1.4c-1.8,0.7-1.8,1-0.6,3.3c1.7,3.3,3,11.6,1.9,12.2C433.6,172.3,428.4,172.8,426.4,172.2z"/>
	<path class="st1" d="M35.5,159c-0.8-1.3,4.2-6.3,5.5-5.5c0.5,0.3,0.6,1.3,0.3,2.2c-0.5,1.3-0.2,1.5,1.5,1.1
		c2.8-0.8,3.7,0.6,1.6,2.3c-1.2,0.9-2,1-3.3,0.2c-1.1-0.7-2.3-0.7-3.3-0.2C36.7,159.7,35.9,159.6,35.5,159z"/>
	<path class="st1" d="M490.2,155.5c-0.9-2-0.9-2.5,0.2-2.5c0.7,0,1.8,1.1,2.4,2.5c0.9,2,0.9,2.5-0.2,2.5
		C491.9,158,490.8,156.9,490.2,155.5z"/>
	<path class="st1" d="M484.5,143.1c-0.9-1.8-1.1-3.2-0.5-3.6c0.5-0.3,1.6,0.8,2.5,2.4c0.9,1.8,1.1,3.2,0.5,3.6
		C486.5,145.8,485.4,144.7,484.5,143.1z"/>
	<path class="st1" d="M478.6,131.6c-2-3.5-5.2-8.8-7.1-11.7s-3.1-5.7-2.8-6.2c0.3-0.6,1.2-0.2,2,0.9c0.7,1,1.9,2.6,2.6,3.4
		c2.9,3.4,10.7,18.9,9.8,19.4C482.6,137.8,480.6,135.1,478.6,131.6z"/>
	<path class="st1" d="M57.6,134.1c-0.7-1.1,2-4.4,5.6-6.6c2.5-1.6,2.8-1.6,3.4-0.1c0.8,2.1-0.3,4.9-1.7,4.1c-0.5-0.4-1.8,0-2.7,0.7
		C59.5,134.6,58.2,135.1,57.6,134.1z"/>
	<path class="st1" d="M56.6,123.2c-0.2-0.4,0.4-1.9,1.4-3.2c1.7-2.2,1.9-2.3,2.5-0.7C61.6,121.9,58,125.5,56.6,123.2z"/>
	<path class="st1" d="M37.7,121.4c-0.9-1,2.5-6.4,4.1-6.4c0.9,0,1,0.5,0.3,1.8C40.2,120.2,38.4,122.1,37.7,121.4z"/>
	<path class="st1" d="M51.6,108.4c-2.1-2.1-1.3-3.2,1.9-2.6c2.1,0.4,2.6,0.1,2.3-1.3c-0.2-1.1,0.8-2.4,2.7-3.6
		c4.7-2.8,5.8-2.4,4,1.2c-1.1,2.1-2.1,2.9-3.2,2.5c-1.1-0.4-1.3-0.2-1,0.9c0.4,0.8-0.3,2.1-1.6,3C54,110.4,53.5,110.4,51.6,108.4z"
		/>
	<path class="st1" d="M60.7,95.4c-1.3-1.3,0.8-3.6,5.1-5.6c4.1-2,4.3-2.2,2.3-3c-1.8-0.6-2-1.1-1.2-2.7c1.6-2.9,3.5-3.1,6-0.5
		l2.3,2.4l-2.6,3.5c-2.9,3.8-6.1,5.9-7.6,5c-0.5-0.3-1.1-0.1-1.5,0.5C62.8,96.1,61.6,96.3,60.7,95.4z"/>
	<path class="st1" d="M87.3,70.4c-0.3-0.9,0.3-2.3,1.6-3.5c1.1-1.1,2.1-2.6,2.1-3.4c0-0.8,0.8-2,1.8-2.7c1-0.7,2.1-2.1,2.5-3
		c0.8-2.2,5.3-5.1,6.7-4.3c1.8,1.1,1.1,3.3-2.1,6.9c-1.7,2-3.2,4.2-3.3,5c-0.2,1.3-6.8,6.6-8.2,6.6C88.2,72,87.7,71.3,87.3,70.4z"/>
	<path class="st1" d="M121.6,39.2c-0.8-1.3,2.2-4.5,6.2-6.6c2.5-1.3,3.2-1.3,4.1-0.2c1,1.1,0.5,1.7-2,3c-1.8,0.9-3.7,1.6-4.2,1.6
		s-1.5,0.7-2.2,1.7C122.7,39.8,122.1,39.9,121.6,39.2z"/>
</g>
<g id="layer3">
	<path class="st2" d="M368.5,487.1c-0.3-0.6,0.3-1.5,1.4-2.1c1.2-0.6,2.2-0.6,2.6-0.1c0.3,0.6-0.3,1.5-1.4,2.1
		C369.9,487.6,368.9,487.6,368.5,487.1z"/>
	<path class="st2" d="M301.2,450.4c-2.6-2.1-3.2-3.2-2.8-5c0.7-2.7-2.5-9.5-6.5-13.9c-2.5-2.8-4.8-10.3-5.4-18.1
		c-0.1-1.1-2.5-6-5.3-10.7c-2.9-4.7-5.2-9.6-5.2-10.9c0-4.1,4-15,6.5-18c2.6-3,3.3-7.2,1.5-8.3c-0.6-0.4-1-2.3-0.9-4.4
		c0.2-2.2-0.6-5.6-1.9-8.2c-1.2-2.5-2.2-5.1-2.2-5.8s-2.6-4.1-5.8-7.6c-8-8.7-9-10.8-7-14.3c0.9-1.5,1.9-5.4,2.3-8.7
		c0.6-5.2,0.4-6.3-1.4-8.4c-1.9-2.1-2.5-2.3-7.7-1.6c-4.5,0.5-5.9,0.3-7.5-1.1c-1-0.9-1.9-2.2-1.9-2.9c0-0.7-0.9-2-2-3
		c-1.6-1.4-3-1.7-7.6-1.2c-3.1,0.3-6.2,1.1-6.7,1.6c-0.6,0.6-1.9,1.1-2.9,1.1c-1.1,0-3.7,0.9-6,2.1c-2.5,1.3-4.9,1.8-6.2,1.4
		c-7.6-2.3-9.1-2.4-14.8-0.4c-3.1,1-6.6,1.9-7.5,1.9c-1.9,0-15.7-9.2-20.1-13.2c-1.2-1.3-3.1-4.1-4.1-6.3c-1-2.2-4.6-6.7-8-10
		c-4.4-4.4-6.1-6.7-6.1-8.7c0-1.5-0.5-3.9-1.2-5.3c-0.9-2.1-0.9-3.1,0.1-4.8c2.2-3.5,4.1-12.9,3-15c-0.6-1-0.8-2.6-0.5-3.5
		c0.4-1-0.1-2.7-0.9-3.8c-0.8-1-1.5-2.7-1.5-3.7c0-2,4.2-9.9,7.1-13.2c0.9-1.1,2-3.5,2.4-5.3c0.4-1.8,1.5-3.7,2.6-4.3
		c1.1-0.5,2.4-2.1,2.9-3.5c0.6-1.5,2.5-3.1,4.7-4c6.1-2.5,10.3-7.2,10.3-11.4c0-5.9,3.2-11.3,8.4-13.9c3.3-1.8,4.9-3.3,6-6.2
		c2.2-5.5,0.7-7.7-5.4-8.1c-4.1-0.3-4.5-0.5-4.2-2.7c0.1-1.3-0.5-2.9-1.5-3.6c-1.5-1.2-1.5-1.6,0.4-6.1c2-4.7,2.5-11.5,1-13
		s-0.6-3.3,2.2-4.7c2.1-1.1,6.1-1.4,15-1.2c7.9,0.1,12.4-0.2,13-0.9c0.4-0.6,1.1-3,1.5-5.3c0.5-3.6,0.3-4.6-2.1-7.2
		c-1.6-1.6-4.4-3.3-6.3-3.8c-2.8-0.7-3.5-1.4-3.5-3.3c0-1.8,0.7-2.6,3-3.1c1.6-0.5,3.9-0.6,5.2-0.3c1.8,0.5,2.3,0.2,2.3-1.4
		c0-2.8,1.5-3.5,4-2c1.6,1,2.3,1,3.8,0c0.9-0.7,2.5-1.5,3.4-1.8c0.9-0.3,1.9-1.2,2.2-2c0.4-1-0.1-1.3-1.7-1
		c-1.2,0.3-5.1,0.8-8.7,1.1c-3.6,0.4-6.9,1-7.5,1.4c-1.6,1.3-8.3,2.2-8.9,1.3c-0.3-0.5,0.3-2,1.4-3.2c1.6-1.8,1.8-2.6,0.8-3.8
		c-1-1.1-0.9-1.7,0.5-2.7c0.9-0.7,1.7-2,1.7-2.9c0-0.9,1.1-2.1,2.5-2.6c2.2-0.8,2.4-1.2,1.3-2.9c-0.7-1.1-2.1-1.9-3.3-1.8
		c-1.4,0.1-2-0.4-2-1.8c0-1.1-0.6-2.5-1.4-3.1c-2-1.5-1.8-6.4,0.4-9.7c1.5-2.3,2.4-2.8,5.4-2.5c2.2,0.2,3.5,0.8,3.4,1.6
		c-0.2,0.6,0.6,1.2,1.7,1.2c2.5,0,3.7,2.7,2.2,5c-0.9,1.5-0.4,2.5,3.2,6.1c2.4,2.4,4.6,5.4,5,6.7c0.5,1.5,1.5,2.2,3.2,2.2
		c2.9,0,4.2,2.5,2.6,5.1c-2,3.1-1.4,3.8,2.3,2.6c1.9-0.5,5.4-2.9,7.8-5.2c3.6-3.4,5.3-4.3,10.3-5.1c5.8-0.9,5.9-0.9,5.5-3.9
		c-0.2-1.6-0.4-4.8-0.5-7c-0.1-3.4,0.2-4,1.8-3.8c1.1,0.1,2.7-0.8,3.6-1.9c1.8-2.3,4-1.7,4,1c0.1,2.6,2.5,5.2,4.9,5.2
		c2.7,0,2.7,0-0.9-5.3c-1.6-2.5-3-5-3-5.6c0-1.6-2.7-1.4-5.4,0.4c-4.1,2.7-8.7,3.6-12.3,2.3c-3.7-1.4-4.2-2.3-4.9-9.4
		c-0.5-5-0.3-5.4,2.9-7.8c1.9-1.4,4-2.6,4.6-2.6c1.2,0,5-1.8,9.1-4.2c0.8-0.4,2.9-1.5,4.5-2.2c1.7-0.8,5.1-3.4,7.7-5.9
		c2.6-2.4,6.1-4.7,7.8-5c1.6-0.4,4.3-1.5,5.8-2.6c2.9-2,21.5-4.4,28.3-3.6c8.5,1.1,11,1.8,11.9,3.5c0.6,1,2.5,2,4.7,2.3
		c5.3,0.7,16.5,4.8,24.9,9.1c7.5,3.7,10,5.8,8.9,7.6c-0.9,1.4-8.3,1.2-13-0.5c-4.9-1.8-4.5-1.8-4.5-0.2c0,0.8,0.9,2.2,1.9,3.1
		c1.6,1.5,2.2,1.5,4,0.5c1.6-1.1,2.6-1,5.4,0.3c3,1.4,3.4,1.4,4.3,0c0.6-0.9,2.5-1.6,4.5-1.6c2.9-0.1,3.5-0.4,3.1-1.8
		c-0.5-2.1,2.4-3.5,4.6-2.2c0.8,0.5,1.3,1.2,1.1,1.5c-0.2,0.3,0.2,1.3,0.8,2.1c0.9,1,3.3,1.5,7.7,1.6c4.3,0,7.7,0.7,10.3,2
		c2.1,1.1,6.3,3.1,9.3,4.5c13,5.9,15.1,7,16,8.7c0.6,1,3.7,4,7,6.6c3.2,2.5,5.8,4.9,5.8,5.3c-0.1,0.3,3.4,4.2,7.7,8.7
		c4.4,4.4,9.3,9.9,10.9,12.2c1.6,2.3,3.2,4.2,3.7,4.2c0.4,0,1,0.8,1.3,1.8c0.3,0.9,2.1,3.5,4.1,5.7c1.9,2.2,3.5,4.4,3.5,4.9
		s3.1,5.9,6.8,12c11.1,18,24.1,47.1,24.2,53.9c0.1,1.2,1.4,6.9,3.1,12.7s3.5,13.7,3.9,17.5c0.5,3.9,1.4,10.4,1.9,14.5
		c0.6,4.1,1,13.1,0.9,20l-0.1,12.5l-0.9-7.2c-0.6-4-1.4-7.3-1.9-7.3s-0.9-0.7-0.9-1.5s-0.4-1.5-1-1.5c-0.5,0-1,0.8-1,1.8
		c0,2.1-4.5,13.8-5.9,15.6c-1.1,1.4-1.6,19-0.6,26.2c0.5,4.1,0.4,5.2-0.8,5.7c-2,0.7-4.1-1.8-3.5-4.1c0.4-1.3,0-1.8-1.6-1.8
		c-1.8,0.1-2.3-1.1-4.4-11.4c-1.9-9.8-5.1-28.9-5.2-31.2c0-0.5-0.9-0.8-1.9-0.8c-2,0-5.1-3.5-5.1-5.7c0-0.7-1.7-3.8-3.7-6.8
		l-3.7-5.5H463c-3.6-0.1-8.8-0.9-11.7-1.9c-2.9-1-5.3-1.7-5.3-1.5c0,1.7,2.7,5.4,4.9,6.7c5.5,3.2,6.4,9.4,2.1,13.7
		c-1.1,1.1-2,2.8-2,3.8c0,2.3-8.2,10-11.5,10.8c-1.4,0.4-3.4,1.8-4.2,3.1c-0.9,1.4-3.5,3.4-5.7,4.5c-2.3,1-6.1,3-8.6,4.3
		c-2.5,1.3-5.2,2.4-6,2.5c-0.8,0-2.4,0.7-3.4,1.5c-1.1,0.8-2.8,1.5-3.8,1.5c-1.2,0-1.8,0.8-1.8,2.4c0,3.4,2.2,4.9,5.1,3.6
		c2.8-1.2,14.5-4.1,17.4-4.3c1.8-0.2,2,0.4,1.9,5.1c-0.1,4.1-1.3,7.4-5.5,16c-4.5,9.1-6.6,12-13.9,19.3
		c-11.2,11.3-17.9,19.2-21.1,25c-2.4,4.3-2.6,5.6-2.3,12.6c0.3,5.2,0.9,8,1.8,8.5c1,0.6,1.2,2.8,0.9,10c-0.6,11-2.5,14.8-8.7,18
		c-2.2,1.1-6.3,4.1-9.1,6.6l-5,4.4v7.7v7.6l-5.2,2.8c-4.8,2.6-5.3,3.1-5.3,6.2c0,2.9-1.1,4.7-6.6,10.5
		c-11.9,12.6-16.5,15.1-33.9,18.3c-4.4,0.8-8.9,1.8-10,2.1C305.2,452.8,303.4,452.2,301.2,450.4z M403,263.6c-0.5-1.5-1-4.3-1-6.2
		c0-3.9-5.9-14.7-11-20.1c-2-2.2-3-4.3-3-6.4c0-3.5-3.2-9.4-5.5-10.3c-0.8-0.3-1.5-1.2-1.5-2s-1.8-4.4-4-7.9c-3.2-5.1-4.5-6.4-6-6
		c-1.1,0.3-2,0.9-2,1.5c0,1.2,3.8,8.7,6.1,12c1.1,1.4,1.9,3.4,1.9,4.3c0,1,1.4,3.3,3,5.2c2.5,2.8,3,4.2,3,8.4c0,4.3,0.4,5.4,2.9,7.7
		c1.8,1.7,3.4,4.5,4.1,7.4c0.9,3.6,2,5.3,4.4,6.8c1.7,1.1,4.4,3.6,6.1,5.4C403.9,267.4,404.5,267.4,403,263.6z M440,219.1
		c1.1-1.7,3-3.3,4.1-3.6c1.6-0.5,1.8-1,0.8-2.1c-0.9-1.1-1.5-1.1-2.5-0.3c-3.3,2.8-12.8-3.4-15.7-10.3c-1.3-3.1-5-5.8-6.3-4.6
		c-0.8,0.9,1.9,7.4,4.2,9.9c1.3,1.4,2.4,3.4,2.4,4.5c0,1.5,0.6,2,2.3,2c1.6-0.1,2.3,0.5,2.5,2.4c0.5,4.2,1.1,5,3.6,5
		C437,222,438.6,221,440,219.1z M310.8,189.7c0.6-0.7,0.9-2.3,0.6-3.4c-1-3.5,2.8-6.3,8.5-6.3c3.1,0,5.3,0.5,6.1,1.5
		c0.7,0.8,1.7,1.5,2.2,1.5c0.6,0,2.4,0.6,4.1,1.4c3.9,1.6,13.3,3.8,16.7,3.7c1.4,0,4.2-0.3,6.3-0.7c2.4-0.4,4.7-0.2,6.1,0.6
		c4.8,2.5,6.8,1.1,9.7-6.7c3.1-8.3,2.8-13.8-0.6-13.8c-1.4,0-2,0.7-2.1,2.2c-0.2,3.1-2.2,5.3-4.9,5.3c-3.2,0-3.9-2.6-1.2-4.5
		c1.2-0.8,1.6-1.5,0.8-1.5c-0.7,0-2.4-0.9-3.8-2c-2.4-1.9-2.7-1.9-4.4-0.4c-1.6,1.5-2,1.5-5,0c-1.8-0.9-4-1.6-5-1.6
		c-2.1,0-7.5-7.6-7-9.8c0.1-0.8-0.5-2.2-1.4-3.2s-1.5-2.6-1.3-3.5c0.2-1.2-0.6-2.1-2.5-2.7c-2.4-0.9-3.1-0.6-5.2,1.7
		c-3.1,3.2-3.1,4.2-0.3,7.3l2.3,2.3l-2.1,1.7c-1.2,0.9-2.4,2.5-2.7,3.5c-1,2.6-4.3,2-6.6-1.2c-1.2-1.6-2.1-3.2-2.1-3.7
		c0-0.4-1.8-3.1-4-6c-2.6-3.5-4-6.4-4-8.4c0-2.6-0.8-3.5-5.5-6.5c-3-2-6.6-4-7.9-4.5c-1.4-0.5-3.2-2.3-4.1-3.9
		c-1.1-2.1-2-2.8-3.2-2.4c-0.9,0.4-2.1-0.1-2.9-1.1c-0.7-1-1.7-1.5-2.3-1.1c-1.9,1.1-1.2,3.3,1.7,5.3c1.5,1.1,3.4,3.2,4.2,4.6
		c0.8,1.6,4.1,4,8.4,6.2c8.8,4.4,11.5,6.9,9.8,8.6c-1,1-1.7,1-3.2,0c-2.7-1.6-4.8-1.6-3.2,0c0.7,0.7,1.2,1.8,1.2,2.6
		c0,2.3-4,7.2-6,7.2c-1.3,0-1.7,0.5-1.3,2c0.9,3.3-2.4,3.6-8.3,0.7c-3-1.5-5.4-3.1-5.4-3.7c0-1.8,3.5-2.8,8.2-2.3
		c3.9,0.5,4.8,0.2,5.7-1.5c1-1.8,0.7-2.6-1.9-5.2c-1.7-1.7-5.3-4.3-8.1-5.7c-5.9-2.9-12.5-8.6-13.4-11.3c-1.1-3.4-4.2-3.3-10.1,0
		c-5.2,3-5.9,3.2-10.5,2.3c-5.4-1.1-6.5-0.5-7.1,3.7c-0.2,1.8-1.5,3.1-4.8,4.7c-5.9,3-9.2,6.7-8.4,9.7c0.4,1.8-0.5,3.3-4.2,6.9
		c-4.2,4.2-5.2,4.7-9.3,4.7c-4.9,0.1-9.2,2.3-7.5,3.9c1.7,1.8,12.2,1.6,14.2-0.2c1-0.9,2.5-1.7,3.3-1.7s2.3-0.6,3.4-1.3
		c1.9-1.2,14.1-3.4,21-3.6c1.7-0.1,5.5-0.3,8.5-0.4c3-0.1,6.5-0.6,7.8-1.1c1.6-0.5,3.5-0.2,5.8,0.9c2.9,1.4,3.3,1.9,2.4,3.5
		c-0.7,1.3-0.7,2.1,0,2.5c1.5,0.9,1.2,5.1-0.5,6.5c-0.8,0.7-1.5,1.6-1.5,2.1c0,1.3,8.9,4.9,12.2,4.9c3.7,0,6.6,1.5,9.8,5
		c1.6,1.7,4.1,2.9,6.7,3.3c2.2,0.4,4.6,1.4,5.3,2.2C308.5,191.3,309.4,191.4,310.8,189.7z M433,167c0-1.6-0.9-4.5-2-6.5
		c-2.4-4.2-2.5-6.4-0.5-7.1c1.9-0.8,0.9-2.5-1.3-2.2c-1,0.2-1.8-0.5-2-1.7c-0.3-1.1-1.5-2.9-2.7-4.1c-1.3-1.2-3-3.5-3.9-5.1
		c-1.4-2.8-1.4-3.2,0.2-4.5c0.9-0.8,2.5-1.8,3.5-2.1c2.5-0.9,2.1-2.6-1-3.8c-2.1-0.8-3.7-0.6-7,0.6c-2.4,0.9-4.5,2.1-4.9,2.6
		c-0.9,1.5,1.7,8.1,4.8,12.1c1.5,2,2.8,4.1,2.8,4.5c0,0.5,0.9,1.6,2,2.6c1.3,1.1,1.8,2.2,1.3,3c-0.4,0.6-1.3,2.8-1.9,4.7
		c-1,3.3-0.9,3.7,2.5,6.7c2.4,2.2,4.6,3.2,6.9,3.3C432.7,170,433,169.7,433,167z M391.8,145.2c0.5-1.6-8-9.6-13-12.3
		c-3.7-1.9-5-5-2.8-6.4c0.6-0.3,1-1.3,1-2.1c0-1.2-1-1.4-4.2-1.2c-4.5,0.3-6.7,2.8-2.5,2.8c2.6,0,4.6,2.8,2.4,3.5
		c-9.2,2.8-8.5,2.9-11.8-0.4c-1.7-1.7-2.8-3.4-2.6-3.8c0.3-0.5-0.5-1.6-1.8-2.5c-2.2-1.7-2.4-1.6-4.9,0.7c-1.4,1.3-2.6,2.8-2.6,3.2
		c0,0.5-0.9,1.6-2,2.6c-1.1,0.9-2,2.4-2,3.2s-0.6,2.4-1.2,3.5c-1.1,1.7-0.9,2.3,0.9,4.1c2.8,2.8,9.3,4,12.4,2.3
		c4.2-2.3,11.9-1.7,18.1,1.5C381.3,147,390.9,147.8,391.8,145.2z M300,81c1.4,0,3.1,0.5,3.8,1.2c0.9,0.9,1.6,0.7,3.1-0.6
		c1.1-1,2.5-1.5,3.1-1.1c0.8,0.5,0.9-0.4,0.4-2.9c-1.1-6.4,3.7-9.5,9.1-6c2.3,1.5,2.5,1.5,2.5-0.1c0-0.9-1-2.5-2.2-3.6l-2.3-1.9
		l2.5-1.9c2.3-1.8,2.3-2,0.4-1.5c-3.4,0.9-10-3.8-10.8-7.6c-1-5.4-0.8-5.8,4.9-9.2c3-1.8,5.5-3.6,5.5-4c0-1.2-4.8-2.1-7.5-1.4
		c-1.6,0.4-2.5,1.3-2.5,2.6s-1,2.5-2.7,3.1c-8.5,3.5-10.3,4.8-10.3,7.7c0,1.2,1.1,2.4,2.9,3.2c1.6,0.6,3.2,1.8,3.5,2.5
		c0.5,1.4-2.8,4.8-5.5,5.8c-0.9,0.3-1.9,2.1-2.2,4.2c-0.7,4.5-2.3,6.5-5,6.5c-1.1,0-2.8,0.6-3.6,1.4c-0.9,0.7-4.2,1.7-7.4,2.1
		c-5.4,0.6-5.9,0.5-6.4-1.4c-0.7-2.7-2-2.7-2.9,0.1c-1,3.3,2.1,5,7.6,4.3c3.1-0.4,5.1-0.2,6.4,0.8c1.8,1.3,2.7,1.2,7.5-0.4
		C294.9,81.8,298.5,81,300,81z M335.5,63c0.4-0.6-1.1-1-3.7-1c-3.1,0-3.9,0.3-2.8,1C331,64.3,334.7,64.3,335.5,63z"/>
	<path class="st2" d="M328.2,170.9c-3.3-1.3-2.2-3.5,1.6-3.2c4.3,0.4,8.4,2.1,7.7,3.3C336.7,172.2,331.3,172.2,328.2,170.9z"/>
	<path class="st2" d="M263.6,150.8c-1.4-4.5-1.5-7.9-0.2-8.4c1-0.4,1.3-1.6,0.9-3.8c-0.3-2.2,0-3.6,1.1-4.5c2.2-1.8,3.6-0.5,3.6,3.4
		c0,1.9,0.5,3.7,1.1,4.1c1.2,0.7,0.3,7.2-1.3,9.2c-0.6,0.6-1.9,1.2-3,1.2C264.8,152,263.8,151.4,263.6,150.8z"/>
	<path class="st2" d="M82.3,445.6c-0.4-0.7-2.7-2.5-5.1-4c-2.3-1.5-5.1-4.1-6.2-5.9c-1-1.8-2.4-3.6-3-4.2
		c-5.1-4.3-12.8-13.1-15.2-17.2c-1.1-1.8-2.3-3.3-2.7-3.3c-0.4,0-1.5-1.5-2.6-3.2c-1-1.8-2.2-3.5-2.5-3.8
		c-1.6-1.2-13.2-21.3-13.5-23.3c-0.4-3.5-1.5-5.5-3.9-7c-1.2-0.8-3.2-3.9-4.5-6.8c-1.3-3-2.9-6.7-3.6-8.4c-4.9-11-12.8-35.2-12-36.5
		c0.3-0.5,0-1.2-0.6-1.5c-0.5-0.4-0.8-1.3-0.5-2.1c0.3-0.7,0.1-1.6-0.5-2c-0.6-0.3-0.8-1.2-0.5-2c0.3-0.7,0.1-1.6-0.5-2
		c-0.5-0.3-0.9-1.3-0.7-2.2c0.1-1-0.1-2.3-0.5-2.9c-0.5-0.7-0.5-1.8-0.2-2.3c0.9-1.5,2.7-0.1,2.1,1.6c-0.3,0.7,0,1.6,0.5,2
		c0.6,0.3,0.9,1.5,0.6,2.5c-0.3,1-0.1,2.2,0.5,2.5c0.5,0.3,0.7,1.2,0.4,2c-0.3,0.7-0.1,1.6,0.5,2c0.6,0.3,0.8,1.2,0.5,2
		c-0.3,0.7-0.1,1.6,0.3,1.9c0.5,0.3,1.4,2.7,2.1,5.5c1.2,5.1,3,7.6,3,4.3c0-1-0.7-4.5-1.5-7.8c-1.1-3.9-1.4-7.7-0.9-11.1
		c0.5-4.5,0.3-5.6-2.1-9.2c-4.6-7-9-28.4-7.7-38.2c1-8,2.7-6.3,3,3c0.2,6.4,0.7,8.5,2.2,10s2,3.4,2,7.9c0,6.7,1.6,12.1,3.6,12.1
		c0.7,0,2.5,1.8,3.8,3.9c4.4,6.9,9,10.7,12.7,10.2c3.7-0.4,6.6,1.7,7.3,5.3c0.4,2,1.1,3.6,1.6,3.6s2.4,2.3,4.2,5
		c2.5,3.9,4.2,5.3,7,6.1c5.1,1.3,9.2,5.1,11.9,10.7c1.2,2.6,2.9,5.5,3.6,6.4c0.9,1,1.2,2.5,0.8,3.7c-0.5,1.6-0.1,2.3,1.9,3.1
		c1.4,0.5,2.6,1.4,2.6,2c0,0.5,0.9,1,2,1c2.6,0,10,4.8,10,6.5c0,0.7,1.2,1.5,2.8,1.8c8.1,1.7,12.5,3.6,16,7c2.1,2.1,5.2,4.1,6.8,4.6
		c3.6,0.9,6.3,5.9,6.4,11.9c0,3.6-0.5,4.9-3,7.2c-1.7,1.5-3,3.5-3,4.4c0,0.8-0.8,1.9-1.7,2.4c-1.5,0.9-1.5,1.5-0.5,4.8
		c1.9,6.4,1.3,14.9-1.2,18.7c-1.5,2.1-2.9,3.1-4.2,2.9c-3.2-0.5-8.4-0.3-9.5,0.3c-0.5,0.4-0.5,1.4,0.2,2.7
		C94,439.7,85.4,451,82.3,445.6z"/>
	<path class="st2" d="M394.7,410.2c-2.7-2.9-2.2-10.6,0.8-14.6c1.9-2.4,2.5-4.5,2.5-8c0-6.1,1.2-8.1,5.9-10.6c2.2-1.1,6.1-4.7,8.7-8
		c2.8-3.6,5.4-6,6.3-5.8c2.5,0.5,2.7,9.1,0.3,14.2c-1.1,2.2-2.3,5.1-2.7,6.4c-0.4,1.3-2.9,7.2-5.5,13
		C404.8,410.5,399.1,415.1,394.7,410.2z"/>
	<path class="st2" d="M483.6,374.2c-0.3-0.5,1.4-4.6,3.6-9.3c2.3-4.6,4.2-8.8,4.4-9.4c0.6-2.8,5.7-15.2,6.6-16.2
		c0.6-0.7,0.7-1.3,0.2-1.3c-0.4,0-0.3-0.5,0.3-1.1c0.6-0.6,0.9-1.7,0.7-2.4c-0.7-1.6,1.2-2.9,2.1-1.5c0.4,0.6,0.1,1.7-0.5,2.5
		c-0.7,0.8-0.9,1.5-0.5,1.5s0.2,0.7-0.5,1.5c-0.7,0.8-1,1.5-0.6,1.5c0.6,0-3.5,11.6-5.5,15.2c-0.7,1.3-1.4,2.8-1.5,3.3
		c-0.3,1.8-7.3,16.5-7.8,16.5C484.3,375,483.9,374.6,483.6,374.2z"/>
	<path class="st2" d="M263.5,311c-1-1.7,1.2-3.7,2.5-2.4c0.8,0.8,0.6,1.5-0.4,2.3C264.6,311.8,264,311.8,263.5,311z"/>
	<path class="st2" d="M18.3,274c-2.7-1.1-2.7-0.9-0.7-4.8c1.9-4,5.1-4.2,8.4-0.7c1.3,1.4,3.1,2.5,4.1,2.5c2.2,0,3.5,1.8,2.1,3.2
		c-0.6,0.6-2.2,0.6-4.6,0c-2.1-0.6-3.8-0.7-4.2-0.1C22.8,275.2,21.2,275.2,18.3,274z"/>
	<path class="st2" d="M11.4,272.9c-1-1.7,1.3-3.6,2.7-2.2c1.2,1.2,0.4,3.3-1.1,3.3C12.5,274,11.8,273.5,11.4,272.9z"/>
	<path class="st2" d="M9.1,262c-4.2-4.9-4.8-8-1.7-8c1.7,0,10.6,9.7,10.6,11.6c0,0.8-1,1.4-2.3,1.4C14.1,267,11.9,265.4,9.1,262z"/>
	<path class="st2" d="M8.2,249.1c-0.7-0.4-1.4-3.6-1.7-7c-0.2-3.5-0.6-6.5-0.9-6.9c-0.3-0.3-0.6-0.1-0.6,0.5c0,0.6-0.7,1.4-1.6,1.7
		c-1.5,0.6-1.6-0.3-1-8.6c0.4-5.1,0.9-13.3,1.1-18.2c1-19.1,13.3-55,26.9-78.6c2.8-4.8,4.9-7.4,5.9-7.2c0.9,0.1,1.7-0.8,2.1-2.2
		c0.3-1.3,1.7-3.8,3.1-5.4c1.6-1.9,2.2-3.3,1.5-3.7s-0.3-1.7,1.1-3.6c1.1-1.6,2.5-2.7,3-2.3c0.6,0.4,0.5,1.1-0.2,2
		c-0.6,0.8-1,1.5-0.8,1.7c0.2,0.1,1.3,0.7,2.4,1.3c1.3,0.8,1.9,2,1.7,3.5c-0.2,2.2,0.1,2,3.4-1.5c3-3.3,3.8-3.7,4.9-2.5
		c0.8,0.8,1.6,3.9,1.9,6.9s1,5.6,1.5,5.8c0.6,0.2,2.4,1.5,4.1,3c3.4,3,3.8,6.3,1.5,12.7c-0.8,2.2-1.5,4.1-1.5,4.3
		c0,0.1,0.9,0.2,2,0.2c2.5,0,4.2,4,3.8,8.9c-0.3,3.4-0.5,3.6-3.8,3.6c-1.9,0-4-0.4-4.7-0.8c-0.7-0.5-2.6-0.6-4.3-0.2
		c-3.9,0.9-4.9-1.4-2.2-5.2c1-1.5,2.2-3.9,2.5-5.1c0.5-2.2,0.4-2.3-1.2-0.8c-1,0.9-4.3,2.5-7.4,3.5c-7.6,2.6-8.3,3.2-6.3,4.3
		c1.8,1,2.1,3.9,0.5,5.5c-1.6,1.6-0.7,5.7,1.4,6.1c1,0.2,1.7-0.3,1.7-1.1c0-0.8,0.9-2.2,2-3.2c1.9-1.7,2-1.7,3,1.1
		c1,2.6,0.8,3.1-2.7,6.2c-2.1,1.8-5.3,4.7-7.2,6.4c-3,2.7-3.6,3-5.4,1.8c-1.9-1.1-2.4-0.9-4.9,1.9c-1.7,1.9-2.8,4.3-2.8,6.1
		c0,2.1-0.8,3.6-3,5.1c-1.9,1.5-3.5,4-4.6,7.6c-0.9,2.9-2.1,5.6-2.5,5.9c-0.5,0.3-0.9,2.2-0.9,4.3c0,2.4-1.5,6.8-4.2,12.2l-4.2,8.4
		l0.3,10.7C11.1,248.7,10.6,250.6,8.2,249.1z M31.4,138.6c2.6-4.4,3.5-8,1.7-6c-1.1,1-5.2,10.4-4.7,10.4C28.6,143,30,141,31.4,138.6
		z"/>
	<path class="st2" d="M49.8,107.3l-2.8-1.4l4.1-5.5c2.3-2.9,4.5-5.4,5-5.4s0.9-0.7,0.9-1.5c0-0.8,1.1-2.2,2.5-3.1
		c1.4-0.9,3.2-3.2,4-5c1.6-4,5.2-6.3,6.1-3.9C69.9,82.3,71,83,72,83c1.1,0,2.1,0.4,2.5,1c0.8,1.4-6.3,8.8-8.8,9.2
		c-1.7,0.2-2.1,0.9-1.9,3c0.4,3.3-1.3,6.8-3.3,6.8c-0.8,0-1.5,0.9-1.5,2c0,1.3-1,2.4-2.6,3C53.4,109.2,53.2,109.2,49.8,107.3z"/>
	<path class="st2" d="M191,96.5c-1.1-1.3-1-1.9,0.4-3.4c1.4-1.6,1.5-2.3,0.5-3.9c-1.7-2.6-0.5-5.2,2.4-5.2c1.4,0,3.1-0.9,3.8-2
		c1.9-2.7,9.6-3.2,11.2-0.8c0.8,1.2,0.8,2.3-0.1,4c-0.6,1.3-1.2,3.4-1.4,4.8c-0.3,2.3-1.2,2.9-7.8,6C196,97.9,192.3,98.1,191,96.5z"
		/>
	<path class="st2" d="M92.3,85.4c-4.1-2.1-5.9-4.9-6.2-10c-0.1-3.6,0.3-4.6,4-8.2l4.1-4.2l-2.6-1c-3-1.1-3.1-1.4-1.1-3.4
		c1.2-1.2,2.1-1.3,4.6-0.4c2.4,0.8,3.3,0.8,3.9-0.3c1.2-1.8,0.1-3.2-1.4-2c-0.7,0.6-1.6,0.8-1.9,0.4c-0.9-0.8,1.3-3.4,2.4-2.8
		c0.4,0.3,1.3-0.4,1.9-1.5c0.6-1.1,1.7-2,2.4-2c0.8,0,1.6-0.7,2-1.5c0.3-0.8,1.2-1.5,2-1.5s3-1.5,5-3.3c1.9-1.9,4.1-3.4,4.8-3.4
		c0.7,0,3.8-1.5,6.8-3.5c6.9-4.3,23.8-12.9,31-15.8c7.1-2.8,13.9-3.4,14.7-1.4c0.3,0.9,1.6,1.4,3.2,1.2c1.4-0.1,2.7,0.2,2.8,0.7
		c0.4,2.1-1,5.4-3,7.2c-2.8,2.5-15.3,9.3-17.2,9.3c-0.7,0-2.9,1.8-4.7,4c-3.9,4.4-8.9,8.1-15.4,11.2c-4.8,2.2-9.4,7-9.4,9.7
		c0,0.9-1.4,3-3,4.6c-1.8,1.8-2.8,3.5-2.5,4.5c0.3,0.9-0.4,2.5-1.4,3.4c-1.1,1-2.3,3.1-2.6,4.7c-1,4.3-8.5,7.5-11.2,4.8
		c-0.8-0.8-1.9-0.6-4.1,0.5C96.4,87.3,96.3,87.3,92.3,85.4z"/>
	<path class="st2" d="M80.5,69c-0.3-0.5,0.5-2.1,2-3.5c2.8-2.9,5.1-2.5,3.5,0.5C84.6,68.5,81.3,70.3,80.5,69z"/>
	<path class="st2" d="M154.8,51.3c-3.4-4.1,0.5-9.1,6.1-7.8c1.7,0.3,3.2,0.2,3.6-0.4c0.3-0.6,1.7-1.1,2.9-1.1c1.3,0,4.7-0.7,7.4-1.6
		c4.7-1.6,5.4-1.6,8.6,0c2.2,1,3.3,2.2,3,3c-0.6,1.4-7.4,5.1-14.9,8C166.5,53.4,156.5,53.3,154.8,51.3z"/>
	<path class="st2" d="M396,45.7c-4.1-2.5-5.2-3.9-4.1-5c1.7-1.7,5.5-0.2,7.3,3C401.6,47.7,400.4,48.5,396,45.7z"/>
	<path class="st2" d="M283.7,6.4c-0.3-0.3-0.3-1.2,0-2c0.6-1.6,8.8-2,9.8-0.5C294.7,6,285.6,8.3,283.7,6.4z"/>
	<path class="st2" d="M273.5,3c-0.3-0.5,0.3-1,1.5-1c1.2,0,1.8,0.5,1.5,1c-0.3,0.6-1,1-1.5,1S273.8,3.6,273.5,3z"/>
</g>
<rect x="9" y="12" class="st3" width="494" height="122"/>
<text transform="matrix(1 0 0 1 46.8423 71.4712)" class="st4 st5 st6">Fun with flags</text>
<g id="layer1_1_">
	<path d="M209.8,251.9c0-13.9,0-15.7,0.1-15.7c0.2,0,25,15.6,25,15.7c0,0.1-24.7,15.6-25,15.7l-0.1,0V251.9z"/>
</g>
<g id="layer2_1_">
	<path class="st7" d="M226.7,277.9c0-0.1,6.3-4,13.9-8.7l13.8-8.6H274h19.6v8.7v8.7h-33.5C228.2,278,226.6,278,226.7,277.9z"/>
</g>
<g id="layer3_1_">
	<path class="st8" d="M209.8,274.8v-3.2l0.1-0.1c0.1-0.1,7.2-4.5,15.8-9.9c8.6-5.4,15.7-9.8,15.7-9.8c0,0-7.1-4.4-15.7-9.8
		c-8.6-5.4-15.7-9.8-15.8-9.9c-0.1-0.1-0.1-0.3-0.1-3.3v-3.2h5.1h5.1l0.3,0.1c0.2,0.1,7.7,4.8,16.8,10.4l16.5,10.3h20.1h20.1v5.3
		v5.3h-20.1h-20.1l-16.5,10.3c-9.1,5.7-16.6,10.3-16.7,10.4c-0.1,0-0.2,0.1-0.2,0.1c0,0-1.6,0.1-5.1,0.1h-5.1V274.8z"/>
</g>
<g id="layer4">
	<path class="st9" d="M240.6,234.5c-7.6-4.7-13.9-8.7-13.9-8.7c-0.1-0.1,1.5-0.1,33.4-0.1h33.5v8.7v8.7H274h-19.6L240.6,234.5z"/>
</g>
<g id="layer5">
	<path class="st10" d="M209.8,269.6v-2.1l0.1-0.1c0.1-0.1,5.7-3.6,12.5-7.8c6.8-4.2,12.3-7.7,12.3-7.7c0,0-5.5-3.5-12.3-7.7
		c-6.8-4.2-12.4-7.8-12.5-7.8c-0.1-0.1-0.1-0.2-0.1-2.2c0-1.4,0-2.1,0.1-2.1c0.1,0,31.8,19.8,31.8,19.9c0,0.1-31.5,19.8-31.8,19.9
		C209.8,271.8,209.8,271.6,209.8,269.6z"/>
</g>
<g id="layer6">
	<path class="st11" d="M220,277.9c0-0.1,7.6-4.8,16.7-10.5l16.6-10.4h20.1h20.1l0,1.8l0,1.8l-19.5,0l-19.5,0l-13.7,8.5
		c-7.5,4.7-13.8,8.6-14,8.7c-0.3,0.1-0.4,0.1-3.6,0.1C220.1,278,219.9,278,220,277.9z"/>
	<path class="st11" d="M236.8,236.3c-9.1-5.7-16.6-10.4-16.7-10.5l-0.2-0.1h3.4c3.4,0,3.4,0,3.7,0.1c0.2,0.1,6.4,4,13.9,8.7
		l13.6,8.5l19.5,0l19.5,0l0,1.8l0,1.8h-20.1h-20.1L236.8,236.3z"/>
</g>
<g id="layer1_2_">
	<path class="st12" d="M222.6,142.2c0-0.1-0.1-10.8,0-23.9l0-23.7l1.7,0c2.1-0.1,6.2,0.1,6,0.3c-0.2,0.1-0.4,3.9-0.3,6.8
		c0,1.4,0.1,1.7,0.2,1.9c0.3,0.3,0.3,0.5,0,0.8c-0.2,0.2-0.2,0.4-0.1,1.4c0,0.7,0.1,1.3,0.2,1.4c0.1,0.1,0.4,2.5,0.4,3.5
		c0,1,0.3,3.3,0.4,3.4c0.1,0.1,0.1,0.4,0.1,0.6c0,0.3,0.1,0.5,0.2,0.6c0.1,0.1,0.1,0.4,0.1,0.8c0,0.4,0,0.8,0.1,1
		c0.1,0.2,0.2,0.6,0.2,0.9c0.1,0.3,0.2,0.7,0.2,0.8c0.1,0.1,0.2,0.6,0.2,1.1c0,0.5,0.2,1.2,0.3,1.5c0.2,0.3,0.3,0.9,0.4,1.3
		c0.1,0.4,0.2,0.9,0.3,1.2c0.1,0.3,0.2,0.7,0.2,1.1c0,0.3,0.1,0.7,0.3,1c0.2,0.2,0.4,0.8,0.5,1.3c0.1,0.5,0.3,1,0.4,1.2
		c0.1,0.1,0.2,0.4,0.2,0.6c0,0.2,0.1,0.5,0.2,0.7c0.1,0.2,0.2,0.5,0.2,0.7c0,0.2,0.2,0.6,0.3,0.9c0.2,0.3,0.3,0.7,0.3,0.8
		c0,0.2,0.1,0.6,0.3,0.9c0.1,0.3,0.3,0.8,0.4,1s0.2,0.5,0.3,0.6c0.1,0.1,0.3,0.7,0.5,1.2c0.2,0.6,0.4,1.1,0.5,1.3
		c0.1,0.2,0.3,0.7,0.6,1.3c0.2,0.6,0.5,1.1,0.6,1.2c0.1,0.1,0.2,0.4,0.2,0.6s0.1,0.4,0.1,0.4c0.1,0,0.2,0.3,0.4,0.6
		c0.1,0.3,0.3,0.6,0.4,0.6c0.1,0,0.2,0.1,0.1,0.2c0,0.1,0.1,0.2,0.2,0.2c1.4,0.1-3.8,0.2-10.1,0.2
		C224.3,142.4,222.7,142.4,222.6,142.2z"/>
	<path class="st12" d="M277.7,142.3c-1,0-1.4-0.1-1.3-0.2c0.2-0.1,0.2-0.1,0-0.1c-0.1,0-0.3-0.2-0.5-0.4s-0.3-0.4-0.4-0.4
		c-0.2,0-0.8-0.6-0.8-0.8c0-0.1-0.1-0.2-0.2-0.2c-0.1,0-0.2-0.2-0.2-0.3c0-0.1-0.2-0.4-0.6-0.7c-0.3-0.3-0.8-0.9-1.1-1.3
		c-0.5-0.8-0.6-0.9-2.2-2.6c-0.5-0.6-1-1.2-1.1-1.5c-0.2-0.6-0.5-0.3-0.4,0.4c0.1,0.8-0.1,0.9-0.4,0.1c-0.2-0.6-0.3-0.6-0.3,0
		c0,0.4-0.3,0.2-0.3-0.2c0-0.3-0.1-0.4-0.3-0.4c-0.5,0-0.4-0.5,0.2-1l0.6-0.5l-0.7,0c-0.4,0-0.8,0.1-0.8,0.1
		c-0.2,0.2-0.6-0.3-0.5-0.5c0.1-0.1,0.2-0.1,0.2,0c0.2,0.3,0.5,0.2,0.6-0.2c0.1-0.3,0-0.4-0.1-0.6c-0.2-0.2-0.2-0.2-0.2,0
		c0,0.5-0.3,0.5-0.8,0.1c-0.4-0.3-0.5-0.4-0.3-0.6c0.1-0.1,0.2-0.2,0.3-0.2c0.1,0,0.3,0,0.5,0c0.3,0,0.3-0.1-0.3-0.7
		c-0.3-0.4-0.7-0.9-0.9-1.3c-0.2-0.3-0.5-0.8-0.8-1c-0.3-0.2-0.5-0.5-0.4-0.6c0.1-0.2-0.3-1.1-1-2c-0.3-0.4-0.6-0.9-0.6-1.2
		c-0.1-0.2-0.3-0.7-0.5-0.9c-0.2-0.3-0.4-0.8-0.6-1.2c-0.1-0.4-0.4-0.9-0.6-1.2s-0.4-0.8-0.6-1.2c-0.1-0.4-0.4-0.9-0.5-1.2
		c-0.2-0.3-0.4-0.9-0.5-1.3c-0.1-0.4-0.3-0.9-0.5-1.1c-0.1-0.2-0.3-0.6-0.5-1.1c-0.1-0.4-0.4-1.2-0.7-1.7c-0.2-0.5-0.5-1.3-0.6-1.8
		c-0.1-0.5-0.3-1-0.4-1.1c-0.1-0.1-0.2-0.3-0.2-0.5c0-0.3-0.3-1.7-0.6-2.6c-0.1-0.2-0.1-0.6-0.1-0.7c0-0.2-0.1-0.3-0.1-0.4
		c-0.1,0-0.1-0.4-0.1-0.8c0-0.4-0.1-0.9-0.2-1.1c-0.1-0.2-0.2-0.7-0.2-1.2s-0.1-1-0.2-1.2c-0.1-0.3-0.2-1.1-0.3-1.8
		c-0.1-0.7-0.2-1.4-0.2-1.4c-0.1-0.1-0.3-1.4-0.3-2.5c0-0.2-0.1-0.5-0.1-0.6c-0.1-0.1-0.1-0.2,0-0.3c0.1-0.1,11.8-0.1,12.1,0
		c0.2,0.1,0.2,0.2,0.1,0.3c-0.1,0.1-0.1,0.3-0.1,0.5c0,0.1,0.1,1,0.2,1.9c0.1,0.9,0.2,1.8,0.3,2.1s0.2,0.7,0.3,0.9
		c0,0.2,0.1,0.6,0.2,0.9c0.1,0.2,0.2,0.8,0.3,1.3c0.1,0.8,0.6,1.7,0.9,1.7c0.2,0,0.2-0.1-0.1-0.5c-0.3-0.4-0.5-1-0.3-1.2
		c0.1-0.1,0.2,0.1,0.5,0.9c0.1,0.2,0.1,0.1,0.2-0.1c0.1-0.2,0.2-0.2,0.3-0.1c0.1,0.1,0,0.3,0,0.4c-0.1,0.1-0.1,0.2-0.1,0.3
		c0,0,0,0.2-0.1,0.4c-0.1,0.2-0.3,0.3-0.8,0.3l-0.6,0l0.5,0.3c0.5,0.3,0.8,0.7,0.6,1.2c-0.1,0.2,0,0.3,0.3,0.5
		c0.4,0.2,0.4,0.3,0.3,0.7c-0.1,0.3,0,0.6,0.1,0.8c0.1,0.2,0.3,0.8,0.5,1.3c0.2,0.5,0.4,1,0.5,1c0.1,0,0.2,0.3,0.3,0.5
		c0.1,0.6,0.7,1.7,0.9,1.8c0.1,0.1,0.2,0.3,0.3,0.6c0.1,0.2,0.2,0.7,0.4,0.9c0.2,0.2,0.4,0.6,0.5,0.8c0.1,0.2,0.5,0.9,0.9,1.5
		c0.4,0.6,0.7,1.2,0.7,1.3s0.2,0.3,0.4,0.5c0.2,0.2,0.4,0.5,0.5,0.8c0,0.3,0.3,0.7,0.5,1c0.2,0.2,0.6,0.7,0.8,1.1
		c0.3,0.4,0.6,0.7,0.9,0.8c0.2,0.1,0.5,0.3,0.6,0.4c0.1,0.1,0.3,0.2,0.5,0.2c0.4,0,0.6,0.2,0.2,0.4c-0.2,0.1-0.2,0.2,0.4,0.4
		c0.6,0.3,0.8,0.5,0.5,0.8c-0.1,0.1-0.1,0.3-0.1,0.4c0.1,0.3,0.1,0.3,0.3,0.2c0.1-0.1,0.3-0.1,0.3,0c0,0,0.1,0,0.1-0.1
		c0-0.2,0.4-0.6,0.6-0.5c0.1,0,0.1,0.2,0,0.5c-0.2,0.4-0.1,0.6,0.2,0.3c0.1-0.1,0.2-0.1,0.3-0.1c0.1,0.2-0.2,0.5-0.6,0.5
		c-0.8,0-0.4,0.7,2.1,3.3c3.2,3.4,4.5,4.5,4.9,4.4c0.1,0,0.2,0.1,0.1,0.3c0,0.2,0.1,0.4,0.3,0.4c0.2,0.1,0.4,0.2,0.5,0.4
		c0.1,0.1,0.2,0.2,0.3,0.2c0.1,0,0.3,0.2,1.4,1.1c0.3,0.2,0.7,0.5,0.9,0.7c0.2,0.1,0.5,0.4,0.7,0.6c0.1,0.2,0.4,0.4,0.5,0.4
		c0.2,0,0.5,0.2,0.8,0.5c0.3,0.3,0.8,0.7,1.1,0.9c0.3,0.2,0.7,0.5,0.9,0.6c0.1,0.2,0.4,0.3,0.5,0.3s0.5,0.2,0.8,0.5
		c0.3,0.3,0.9,0.6,1.3,0.8c0.4,0.2,0.7,0.4,0.7,0.5c0.1,0.1,0.2,0.1,0.4,0.1c0.4,0,0.6,0.2,0.2,0.3c-0.1,0,0,0.1,0.4,0.1
		C302,142.3,282.8,142.5,277.7,142.3z M275,131c0.6-0.5,0.8-0.5,1.5-0.1c0.6,0.3,0.7,0.3,0.3-0.2c-0.4-0.5-0.3-0.9,0.2-1.4l0.5-0.4
		l-0.9,0.1l-0.9,0.1l-0.4-0.6c-0.2-0.3-0.4-0.6-0.5-0.6c-0.1,0-0.1,0.3-0.2,0.6l0,0.6l-0.8,0.1l-0.8,0.1l0.7,0.4l0.7,0.4v0.8
		c0,0.4,0,0.7,0.1,0.7C274.5,131.4,274.7,131.3,275,131z M261.9,104c0-0.1-0.1-0.2-0.1-0.2c-0.3-0.2-0.1-0.7,0.3-0.8
		c0.5-0.2,0.5-0.4,0.1-0.4c-0.8,0-1.2-0.2-1.5-0.7c-0.4-0.7-0.5-0.7-0.6-0.1c-0.1,0.6-0.2,0.6-1,0.4c-0.4-0.1-0.7-0.1-0.7-0.1
		c0,0,0.2,0.2,0.6,0.3c0.7,0.4,0.8,0.6,0.6,1.2c-0.2,0.5,0,0.6,0.7,0.2c0.5-0.2,0.5-0.2,1,0.1C261.7,104.1,261.9,104.1,261.9,104z"
		/>
	<path class="st12" d="M268.3,135.5c0-0.1,0-0.1,0-0.1c0,0-0.2-0.1-0.4-0.2c-0.2-0.1-0.4-0.2-0.4-0.2c-0.1,0-0.2,0-0.2-0.1
		c-0.1,0-0.2,0-0.2,0c-0.1,0-0.1,0-0.1-0.1c0-0.1,0.4-0.1,0.7,0c0,0,0.1,0,0.2,0c0.1,0,0.2,0.1,0.3,0.1c0.1,0.1,0.2,0.1,0.3,0.1
		c0.1-0.2,0.4,0.2,0.4,0.4C268.6,135.6,268.2,135.7,268.3,135.5z"/>
	<path class="st12" d="M253.4,134.9c-0.1-0.1,0-0.2,0-0.3s0.2-0.1,0.2,0c0.1,0.1,0,0.2,0,0.3C253.5,135,253.4,135,253.4,134.9z"/>
	<path class="st12" d="M265,131.7c-0.1-0.1,0-0.2,0-0.3c0.1-0.1,0.2-0.1,0.2,0c0.1,0.1,0,0.2,0,0.3C265.1,131.9,265,131.9,265,131.7
		z"/>
	<path class="st12" d="M246.5,127c-0.1-0.1,0-0.2,0-0.3c0.1-0.1,0.2-0.1,0.2,0c0.1,0.1,0,0.2,0,0.3
		C246.6,127.1,246.6,127.1,246.5,127z"/>
	<path class="st12" d="M281.5,123.8c-0.1-0.1,0-0.2,0-0.3c0.1-0.1,0.2-0.1,0.2,0c0.1,0.1,0,0.2,0,0.3
		C281.7,123.9,281.6,123.9,281.5,123.8z"/>
	<path class="st12" d="M278.9,123c-0.1-0.2,0.2-0.3,0.3-0.2c0.2,0.1,0.1,0.4-0.1,0.4C279,123.1,279,123,278.9,123z"/>
	<path class="st12" d="M243.2,120.5c-0.1-0.1,0-0.2,0-0.3c0.1-0.1,0.2-0.1,0.2,0c0.1,0.1,0,0.2,0,0.3
		C243.3,120.6,243.2,120.6,243.2,120.5z"/>
	<path class="st12" d="M243.4,115.5c-0.1-0.1,0-0.2,0-0.3c0.1-0.1,0.2-0.1,0.2,0c0.1,0.1,0,0.2,0,0.3
		C243.6,115.6,243.5,115.6,243.4,115.5z"/>
	<path class="st12" d="M244,112.4c0-0.1,0-0.2,0.1-0.4c0.1-0.2,0.2-0.2,0.3-0.1c0.1,0.1,0.1,0.2-0.1,0.4
		C244.2,112.4,244.1,112.4,244,112.4z"/>
	<path class="st12" d="M244.4,110.7c-0.1-0.1,0-0.2,0-0.3c0.1-0.1,0.2-0.1,0.2,0c0.1,0.1,0,0.2,0,0.3
		C244.6,110.8,244.5,110.8,244.4,110.7z"/>
	<path class="st12" d="M303.6,110c-0.1-0.1-0.2-0.2-0.3-0.4c-0.1-0.2-0.2-0.3-0.4-0.3c-0.1,0-0.3-0.2-0.5-0.4s-0.4-0.4-0.5-0.4
		c-0.1,0-0.4-0.3-0.6-0.6c-0.2-0.3-0.5-0.6-0.6-0.6c-0.1,0-0.4-0.3-0.6-0.6c-0.2-0.3-0.7-0.9-1-1.3c-0.3-0.4-0.6-0.7-0.6-0.8
		c0-0.1-0.1-0.1-0.1-0.1c-0.1,0-0.2-0.2-0.4-0.5c-0.1-0.3-0.5-0.8-0.8-1.2c-0.3-0.4-0.6-0.9-0.6-1s-0.2-0.4-0.4-0.6
		c-0.2-0.2-0.4-0.5-0.5-0.7c0-0.2-0.3-0.7-0.7-1.3c-0.4-0.6-0.6-1.2-0.7-1.6c-0.1-0.3-0.2-0.7-0.3-0.7c-0.1,0-0.2-0.3-0.3-0.6
		c-0.1-0.3-0.2-0.7-0.4-1c-0.2-0.3-0.3-0.5-0.2-0.6c0.1-0.1,1.6-0.1,4.3-0.1c4,0,4.2,0,4.4,0.3c0.1,0.2,0.2,0.4,0.2,0.6
		c0,0.2,0.1,0.4,0.3,0.6c0.2,0.1,0.3,0.3,0.3,0.4c0,0.1,0.1,0.3,0.3,0.5s0.3,0.4,0.3,0.5c0,0.1,0.1,0.4,0.3,0.6
		c0.3,0.4,0.3,0.6,0.4,5.1C304,108.2,303.9,110.2,303.6,110z"/>
	<path class="st12" d="M269.4,107c-0.1-0.2,0.5-0.4,0.7-0.3c0.1,0,0,0.2-0.1,0.3C269.6,107.2,269.5,107.2,269.4,107z"/>
	<path class="st12" d="M268.8,106.5c0-0.1,0.1-0.2,0.2-0.3c0.2-0.1,0.3-0.1,0.3,0c0,0.1,0.1,0,0.2-0.2c0.2-0.2,0.2-0.3,0.3,0
		c0.1,0.3,0,0.6-0.2,0.5c-0.1,0-0.2,0-0.4,0.1C269,106.6,268.9,106.6,268.8,106.5z"/>
	<path class="st12" d="M270.8,105.1c0-0.1,0-0.2,0.1-0.3c0.1-0.1,0.2-0.1,0.3,0c0,0.1,0,0.2-0.1,0.3
		C270.9,105.2,270.8,105.2,270.8,105.1z"/>
	<path class="st12" d="M252.3,103.7c-0.1-0.2,0.3-0.3,0.6-0.2c0.3,0.1,0.1,0.4-0.2,0.4C252.5,103.8,252.3,103.7,252.3,103.7z"/>
	<path class="st12" d="M253.3,103.6c0-0.1,0-0.2,0.1-0.2c0.1,0,0.2,0.1,0.3,0.2c0,0.1,0,0.2-0.1,0.2
		C253.4,103.8,253.3,103.7,253.3,103.6z"/>
	<path class="st12" d="M254.1,103.3c-0.1-0.2,0.2-0.5,0.4-0.3c0.2,0.2,0.1,0.5-0.2,0.5C254.2,103.5,254.1,103.4,254.1,103.3z"/>
</g>
<g id="layer2_2_">
	<path class="st13" d="M239.1,142.3c1-0.1,1.3-0.1,1-0.2c-0.3-0.1-0.5-0.2-0.6-0.7c-0.1-0.3-0.3-0.6-0.4-0.7c-0.1,0-0.1-0.2-0.1-0.4
		s-0.1-0.5-0.3-0.7c-0.2-0.2-0.4-0.8-0.6-1.4c-0.2-0.5-0.4-1-0.5-1.2c-0.1-0.1-0.3-0.6-0.5-1.2c-0.2-0.5-0.4-1.1-0.5-1.2
		c-0.1-0.1-0.2-0.4-0.3-0.6c-0.1-0.2-0.3-0.6-0.4-1c-0.1-0.3-0.3-0.7-0.3-0.9c0-0.1-0.2-0.5-0.3-0.8c-0.3-0.5-0.5-1.2-0.7-2.3
		c0-0.2-0.2-0.5-0.2-0.6c-0.1-0.1-0.3-0.6-0.4-1.1c-0.1-0.5-0.3-1.2-0.5-1.4c-0.2-0.3-0.3-0.8-0.3-1.1c-0.1-0.8-0.7-3.4-0.9-3.7
		c-0.1-0.2-0.2-0.7-0.2-1.2c-0.1-0.8-0.1-0.9-0.3-0.7c-0.3,0.2-0.6-0.3-0.2-0.5c0.2-0.1,0.2-0.3,0.1-0.8c-0.1-0.4-0.2-0.8-0.4-0.9
		c-0.2-0.2-0.2-0.3,0-0.5c0.2-0.3,0.2-1,0-1.1c-0.1,0-0.1-0.3-0.1-0.6s-0.1-0.5-0.1-0.6s-0.2-0.5-0.2-1c-0.1-0.7-0.1-0.9-0.3-0.9
		c-0.3,0.1-0.4-0.4-0.1-0.6c0.2-0.1,0.2-0.3,0.2-1c0-0.4-0.1-1.3-0.1-2c0-0.7-0.1-1.4-0.2-1.5c-0.1-0.2-0.2-0.8-0.3-1.5
		c-0.1-0.9-0.1-1.2,0-1.5c0.1-0.3,0.2-0.4,0-0.5c-0.1-0.1-0.2-1.5-0.2-4.5c0-4.2,0-4.3,0.3-4.4c0.2-0.1-0.2-0.1-0.9-0.2
		c-0.6,0,5.1-0.1,12.8-0.1c7.7,0,13.6,0,13.1,0c-0.5,0-0.9,0.1-0.9,0.2c0,0.1,0.1,0.1,0.3,0.1c0.3,0,0.4,0.3,0.1,0.5
		c-0.2,0.1,0,2.2,0.2,2.4c0.1,0.1,0.2,0.7,0.2,1.4c0.1,0.7,0.2,1.4,0.3,1.7c0.1,0.3,0.2,0.8,0.2,1.2s0.1,0.9,0.2,1.2
		c0.1,0.2,0.2,0.7,0.2,1.1c0,0.4,0.1,0.7,0.1,0.8c0.1,0.1,0.4,1.3,0.5,2c0,0.3,0.2,1,0.5,1.7c0.2,0.7,0.4,1.4,0.4,1.5
		c0,0.2,0.6,1.7,1,2.8c0.2,0.4,0.4,0.9,0.4,1.2c0.1,0.2,0.2,0.6,0.3,0.7c0.1,0.2,0.4,0.6,0.5,1.1c0.1,0.4,0.4,1,0.5,1.3
		c0.2,0.3,0.4,0.9,0.6,1.3c0.1,0.4,0.4,0.9,0.6,1.1c0.2,0.2,0.4,0.6,0.5,1c0.1,0.3,0.3,0.9,0.6,1.2c0.2,0.3,0.4,0.8,0.5,1
		c0.1,0.2,0.4,0.9,0.8,1.4c0.3,0.5,0.7,1.1,0.7,1.2c0,0.1,0.2,0.3,0.4,0.4c0.2,0.1,0.3,0.3,0.3,0.5c0,0.2,0.1,0.4,0.2,0.5
		c0.1,0.1,0.3,0.4,0.5,0.8c0.2,0.4,0.6,1,1,1.3c0.4,0.4,0.7,0.8,0.7,0.9c0,0.4,0.5,1.1,0.7,1.1c0.1,0,0.3,0.1,0.4,0.2
		c0.1,0.2,0.1,0.2-0.2,0.3c-0.2,0.1-0.6,0.2-0.9,0.2c-0.7,0.1-0.8,0-1.4-0.8l-0.4-0.5l-0.1,0.5c-0.1,0.3-0.2,0.6-0.2,0.8
		c0,0.4-0.4,0.6-1.2,0.7l-0.8,0.1l-0.7-1c-0.4-0.6-0.7-1.1-0.7-1.1c0-0.1-0.1-0.2-0.3-0.4c-0.2-0.1-0.3-0.4-0.3-0.5
		s-0.3-0.5-0.5-0.7c-0.2-0.2-0.4-0.5-0.4-0.6s-0.1-0.2-0.2-0.3c-0.1-0.1-0.3-0.3-0.4-0.6c-0.1-0.3-0.3-0.6-0.4-0.7
		c-0.1-0.1-0.2-0.3-0.2-0.4s-0.2-0.4-0.4-0.6c-0.2-0.2-0.6-0.7-0.7-1c-0.2-0.3-0.5-0.8-0.7-1.1c-0.2-0.3-0.6-0.8-0.8-1.1
		c-0.3-0.5-0.5-0.7-0.9-0.7c-0.5-0.1-1,0.2-1,0.5c0,0.2,0.3,1.3,0.7,2.3c0.1,0.4,0.3,1,0.3,1.4c0.1,0.4,0.2,0.8,0.2,0.9
		c0.1,0,0.1,0.2,0.1,0.3c0,0.1,0.1,0.3,0.2,0.3c0.1,0,0.2,0.2,0.2,0.4c0,0.2,0.1,0.3,0.1,0.4c0.1,0,0.1,0.3,0.1,0.5s0.2,0.6,0.3,0.9
		c0.2,0.3,0.4,0.7,0.4,0.9c0.1,0.2,0.2,0.4,0.2,0.4c0.1,0,0.1,0.1,0.1,0.2c0,0.1,0,0.2-0.1,0.2c-0.1,0-0.3,0.1-0.5,0.2
		c-0.2,0.1-0.7,0.2-1,0.2c-0.6,0-0.6,0-1-0.6l-0.4-0.6l-0.2,0.9l-0.2,0.9l-0.8,0.2c-1,0.3-1.1,0.4-0.4,0.6c0.8,0.2,1,0.4,0.8,1.1
		c-0.2,0.9-0.2,1,0.5,0.3c0.7-0.6,0.9-0.7,1.8-0.4c0.3,0.1,0.6,0.2,0.6,0.2c0.1,0,0-0.4-0.3-0.9c-0.1-0.2-0.2-0.5-0.2-0.6
		c0-0.3,0.8-1.1,1.3-1.2c0.3-0.1,0.4,0,0.8,0.9c0.2,0.5,0.4,1,0.4,1s0.2,0.3,0.4,0.7c0.2,0.3,0.4,0.8,0.5,1c0.1,0.2,0.2,0.6,0.4,0.8
		c0.4,0.6,0.6,0.9,0.9,1.6c0.3,0.5,0.7,1.3,1.8,2.8c0.2,0.4,0.4,0.7,0.4,0.8s0.1,0.2,0.1,0.2c0.1,0,0.1,0.1,0.1,0.2
		c0,0.1,0.1,0.2,0.3,0.2c0.2,0-1,0.1-2.6,0.1c-3.2,0.1-12.5,0-12.4-0.1c0.1-0.1-0.5-1.2-0.6-1.2c-0.1,0-0.3-0.3-0.4-0.6
		c-0.2-0.3-0.4-0.7-0.6-0.9c-0.1-0.2-0.3-0.4-0.3-0.5s-0.1-0.2-0.1-0.2c-0.1,0-0.3-0.3-0.4-0.6c-0.2-0.3-0.4-0.6-0.5-0.6
		c-0.1,0-0.2-0.2-0.3-0.5c-0.2-0.5-0.7-1.4-1-1.8c-0.1-0.1-0.2-0.3-0.2-0.4c0-0.1-0.2-0.3-0.4-0.5c-0.2-0.2-0.5-0.5-0.6-0.8
		c-0.1-0.3-0.3-0.5-0.4-0.5c-0.1,0-0.3-0.2-0.4-0.4c-0.3-0.7-1.8-2.7-1.9-2.6c-0.2,0.1-0.1,1,0.1,1.1c0.2,0.1,0.2,0.3,0.2,0.8
		c0,0.7,0.4,2.6,0.7,2.9c0.1,0.1,0.1,0.3,0.2,0.5c0.1,0.6,0.8,2.5,0.9,2.7c0.1,0.1,0.1,0.2,0.1,0.3c0,0.1,0.2,0.7,0.5,1.4
		c0.3,0.6,0.6,1.4,0.7,1.7c0.1,0.2,0.2,0.5,0.3,0.5c0.1,0-0.1,0.1-0.4,0.1c-0.3,0.1-1.8,0.1-3.3,0.1
		C238.2,142.4,238,142.3,239.1,142.3z M247.4,129.9c0.1,0,0.3,0.1,0.5,0.1c0.1,0.1,0.4,0.2,0.6,0.2l0.4,0.1l-0.4-0.6
		c-0.2-0.3-0.4-0.7-0.4-0.8s0.2-0.4,0.5-0.7c0.6-0.6,0.5-0.6-0.3-0.4c-0.6,0.2-1,0-1.4-0.6c-0.2-0.4-0.4-0.3-0.4,0.2
		c0,0.8-0.2,1.1-0.9,1.3c-0.9,0.3-1,0.4-0.2,0.6c0.7,0.2,0.8,0.4,0.6,1.4l-0.1,0.5l0.6-0.6C247,130.2,247.3,129.9,247.4,129.9z
		 M244.7,122.4c0.9,0.2,0.9,0.2,0.6-0.3c-0.4-0.6-0.3-1,0.2-1.6c0.5-0.6,0.5-0.6-0.2-0.3c-0.6,0.3-0.8,0.2-1.2-0.5l-0.3-0.5
		l-0.2,0.7c-0.1,0.4-0.2,0.7-0.2,0.8c0,0.1-0.3,0.3-0.7,0.4c-0.6,0.3-0.7,0.4-0.5,0.4c1,0.3,0.9,0.3,0.8,1.1l-0.1,0.7l0.6-0.6
		C244,122.2,244.1,122.2,244.7,122.4z M245.8,113.7c0.4,0.1,0.8,0.1,0.8,0.1c0,0-0.1-0.3-0.3-0.5c-0.4-0.6-0.3-0.9,0.2-1.5
		c0.5-0.6,0.5-0.6-0.3-0.3c-0.5,0.2-0.6,0.2-0.8,0c-0.2-0.1-0.3-0.4-0.3-0.5c-0.1-0.4-0.3-0.3-0.4,0.3c-0.1,0.9-0.3,1.1-1,1.4
		l-0.6,0.3l0.4,0.1c0.7,0.2,0.8,0.2,0.7,1l-0.1,0.7l0.6-0.6l0.6-0.6L245.8,113.7z M250.4,105.9c0.4-0.4,0.7-0.4,1.5-0.1
		c0.6,0.2,0.7,0.2,0.3-0.4c-0.4-0.5-0.3-0.8,0.1-1.1c0.2-0.1,0.5-0.3,0.6-0.5c0.2-0.2,0.2-0.2-0.4-0.1c-0.3,0.1-0.7,0.1-0.9,0.2
		c-0.2,0.1-0.4-0.1-0.7-0.5c-0.4-0.7-0.6-0.6-0.7,0.1c-0.1,0.5-0.4,0.8-1.1,1c-0.6,0.1-0.7,0.3-0.1,0.4c0.7,0.1,0.8,0.3,0.6,0.9
		C249.5,106.7,249.5,106.7,250.4,105.9z"/>
	<path class="st13" d="M271.4,142.3c-0.7-0.1-1-0.4-3.7-3.7c-0.6-0.8-1.2-1.5-1.3-1.5c-0.1-0.1-0.2-0.2-0.3-0.4
		c-0.1-0.2-0.3-0.4-0.5-0.5c-0.5-0.2-0.5-0.7-0.1-1.3c0.4-0.6,0.8-0.6,1.8-0.1c0.4,0.2,0.7,0.3,0.7,0.3c0,0-0.1-0.2-0.2-0.4
		c-0.7-1-0.7-1.3,0.4-2c0.5-0.3,0.6-0.5,0.5-0.6c-0.1-0.1,0-0.2,0.3-0.2c0.5,0,0.6,0.2,0.3,0.4c-0.2,0.1-0.2,0.2-0.1,0.4
		c0.1,0.2,0.1,0.2-0.1,0.4c-0.1,0.1-0.2,0.2-0.1,0.2c0.1,0,0.3,0.2,0.4,0.5c0.1,0.3,0.7,1,1.2,1.5c0.5,0.5,0.9,1,0.9,1.1
		s0.2,0.4,0.5,0.7c0.3,0.3,0.6,0.8,0.8,1c0.1,0.2,0.4,0.6,0.6,0.8c0.2,0.2,0.6,0.7,1,1.2c0.3,0.5,0.6,0.8,0.7,0.8
		c0.1,0,0.2,0.1,0.2,0.2c0,0.1,0.1,0.2,0.2,0.2c0.1,0,0.4,0.2,0.6,0.5c0.4,0.4,0.4,0.5,0.3,0.6c-0.1,0.1,0.4,0.1,1.3,0.2
		c0.8,0-0.2,0-2.2,0C273.7,142.4,271.7,142.3,271.4,142.3z"/>
	<path class="st13" d="M297.8,142.3c1.4-0.1,1.7-0.1,1.2-0.2c-0.5-0.1-0.9-0.2-1.2-0.5c-0.3-0.2-0.5-0.4-0.6-0.4
		c-0.1,0-0.5-0.3-1-0.6s-0.9-0.6-1-0.6s-0.3-0.1-0.5-0.3c-0.1-0.2-0.6-0.5-1.1-0.7c-0.4-0.2-0.9-0.5-1-0.7c-0.1-0.2-0.3-0.4-0.6-0.5
		c-0.2-0.1-0.6-0.4-0.8-0.6c-0.2-0.2-0.5-0.5-0.6-0.5c-0.1,0-0.3-0.1-0.4-0.3c-0.5-0.5-1.4-1.2-1.7-1.2c-0.1,0-0.3-0.2-0.4-0.4
		c-0.1-0.2-0.3-0.4-0.6-0.6c-0.3-0.1-0.5-0.3-0.5-0.4c0-0.1-0.2-0.4-0.5-0.6c-0.3-0.2-0.7-0.6-1-0.9c-0.2-0.3-0.5-0.5-0.5-0.5
		c0,0-0.3-0.2-0.6-0.5c-0.3-0.3-0.7-0.7-1-0.9c-0.2-0.2-0.4-0.4-0.4-0.5c0-0.1-0.7-0.8-0.8-0.8c-0.1,0-0.9-0.9-0.9-1
		c0-0.1-0.1-0.1-0.2-0.1c-0.1,0-0.2-0.1-0.3-0.2c-0.2-0.4-1.1-1.4-1.2-1.2c-0.1,0.2-0.9-0.2-0.8-0.5c0-0.1,0-0.2-0.1-0.3
		c-0.1,0-0.2-0.2-0.2-0.4c0-0.2-0.1-0.4-0.2-0.4c-0.1,0-0.2-0.2-0.2-0.3c0-0.1-0.1-0.2-0.3-0.2c-0.2,0-0.3-0.2-0.5-0.5
		c-0.2-0.4-0.5-0.7-0.8-0.7c-0.1,0-0.1-0.2-0.2-0.4c0-0.4-0.9-1.9-1.2-2.1c-0.2-0.1-0.8-1.2-0.8-1.5c0-0.1-0.2-0.2-0.4-0.4
		c-0.2-0.2-0.4-0.5-0.5-0.7c0-0.2-0.1-0.3-0.2-0.3s-0.2-0.1-0.2-0.2c0-0.4-0.2-0.9-0.7-1.6c-0.3-0.3-0.5-0.7-0.5-0.9
		c0-0.2-0.1-0.3-0.1-0.3c-0.1,0-0.7-1.2-0.7-1.4c0-0.1-0.1-0.2-0.3-0.4c-0.2-0.1-0.3-0.3-0.3-0.4c0-0.1-0.1-0.4-0.3-0.7
		c-0.2-0.3-0.3-0.6-0.3-0.7c0-0.1-0.1-0.3-0.3-0.4c-0.1-0.2-0.4-0.7-0.6-1.3c-0.2-0.5-0.4-1-0.5-1c-0.1-0.1-0.2-0.2-0.1-0.6l0.1-0.5
		h-0.5c-0.5,0-0.5,0-0.6-0.6c0-0.3-0.2-0.7-0.3-0.8c-0.1-0.1-0.2-0.4-0.2-0.6c0-0.5,0.1-0.6,0.3-0.3c0.1,0.1,0.3,0.2,0.4,0.1
		c0.4-0.1,0.6,0.2,0.5,0.9l-0.1,0.7l0.6-0.4c0.6-0.4,0.8-0.4,1.8-0.1c0.3,0.1,0.3,0.1,0.1-0.2c-0.4-0.6-0.4-0.7,0.1-1.2l0.5-0.4
		l-0.7,0.1c-0.7,0.1-0.7,0.1-1.1-0.5c-0.2-0.3-0.5-0.5-0.5-0.5c0,0-0.1,0.3-0.2,0.5c-0.1,0.4-0.2,0.4-0.7,0.5c-0.3,0-0.7,0-0.8-0.1
		s-0.3-0.1-0.4-0.1c-0.3,0-0.2-0.2,0.1-0.5c0.3-0.2,0.3-0.3,0.2-0.8c-0.1-0.3-0.2-0.8-0.2-1.1c0-0.3-0.1-0.4-0.2-0.4
		c-0.2,0-0.2-0.1-0.2-0.6c0-0.4,0-0.8-0.2-1.1c-0.1-0.3-0.3-1.2-0.4-2.2c-0.1-1-0.2-1.8-0.3-2c-0.3-0.4-0.2-0.6,0.1-0.6
		c0.2,0,0.2-0.1,0.2-0.1c-0.1-0.1-0.5-0.2-1-0.2c-0.5,0,6.1,0,14.6,0s15.2,0,14.8,0c-0.9,0.1-1.1,0.2-0.7,0.4
		c0.2,0.1,0.4,0.5,0.5,0.8c0.1,0.3,0.2,0.7,0.3,0.8c0.1,0.1,0.3,0.5,0.4,0.9c0.1,0.4,0.4,1,0.7,1.5c0.3,0.5,0.6,1,0.6,1.2
		c0,0.2,0.2,0.5,0.4,0.7c0.2,0.2,0.4,0.5,0.5,0.8c0.1,0.3,0.4,0.7,0.7,1c0.3,0.3,0.6,0.8,0.7,1c0.4,0.8,4.3,5,4.9,5.3
		c0.2,0.1,0.3,0.2,0.3,0.4s0.1,0.3,0.1,0.4c0.1,0,0.2-0.2,0.2-0.7c0-0.4,0.1,1,0.1,3.1c0,2.1,0,4.1-0.1,4.5
		c-0.1,0.4-0.1,0.6-0.1,0.5c0-0.1-0.1-0.2-0.3-0.2c-0.1,0-0.3-0.1-0.4-0.2c-0.1-0.1-0.9-0.8-1.8-1.6c-0.9-0.8-1.8-1.6-1.9-1.7
		c-0.2-0.2-0.7-0.6-1.2-1.1c-0.8-0.7-4.7-4.8-6.9-7.1c-0.4-0.4-0.9-0.8-1-0.8c-0.1,0-0.5-0.3-0.9-0.7c-0.6-0.6-0.9-0.7-0.9-0.2
		c0,0.1-0.2,0.4-0.4,0.7c-0.2,0.3-0.4,0.6-0.3,0.7c0,0.1,0,0.3-0.2,0.5c-0.1,0.2-0.3,0.7-0.3,1.5c-0.1,0.7-0.2,1.4-0.2,1.6
		c-0.2,0.6-0.3,0.9-0.3,1.1c0,0.1-0.1,0.3-0.3,0.6c-0.2,0.2-0.2,0.5-0.2,0.6c0.1,0.4-1,1.5-1.2,1.1c-0.1-0.1-0.2,0-0.3,0.1
		c-0.2,0.2-0.3,0.3-0.8,0.3c-0.3,0-0.6-0.1-0.7-0.1c0-0.1-0.3-0.1-0.5-0.1c-0.2,0-0.9-0.3-1.5-0.6c-1.1-0.6-1.2-0.6-2.5-0.6h-1.4
		v0.8c0,0.7,0.1,1,0.5,1.9c0.1,0.1,0.2,0.5,0.2,0.8c0.1,0.3,0.2,0.6,0.2,0.6c0.1,0,0.1,0.2,0.1,0.3c0,0.2,0.1,0.3,0.3,0.4
		c0.2,0.1,0.3,0.2,0.3,0.4c0,0.2,0.3,0.8,0.4,0.9c0.2,0.1,0.8,1.2,0.8,1.3c0,0.5,2.9,4.5,2.9,4c0,0,0.1,0,0.2,0.1
		c0.1,0.1,0.2,0.2,0.1,0.3c0,0.1,0.2,0.5,0.6,0.9c2.5,2.7,3.2,3.4,4.5,4.6c0.8,0.7,1.7,1.4,1.8,1.5c0.2,0.1,0.3,0.2,0.3,0.2
		c0,0.1,0.2,0.3,0.5,0.5c0.3,0.2,0.6,0.5,0.7,0.6c0.2,0.2,1.6,1.2,1.8,1.2c0,0,0.3,0.1,0.5,0.3c0.6,0.4,1.7,1.1,2.9,1.7
		c0.5,0.2,1,0.5,1.1,0.6c0.1,0.1,0.3,0.2,0.4,0.2s0.6,0.3,1.1,0.5c0.5,0.2,1.1,0.5,1.4,0.6c0.3,0.1,0.7,0.3,0.9,0.4
		c0.2,0.1,0.6,0.2,0.8,0.2c0.4,0,0.4,0,0.3-0.3c-0.1-0.2,0-0.3,0.2-0.4c0.2-0.1,0.3-0.1,0.4-0.1c0,0,0.1-0.5,0.1-1.1
		c0-0.7-0.1-1-0.1-0.8c0,0.2-0.1,0.4-0.2,0.4c-0.2,0-0.6-0.7-0.5-0.9c0.2-0.3,0-0.9-0.2-1.1c-0.1-0.1-0.3-0.3-0.3-0.4
		c0-0.1-0.1-0.3-0.1-0.5c-0.4-0.7-0.4-1-0.4-1.5c0-0.4,0.1-0.5,0.3-0.4c0.2,0,0.2,0,0-0.4c-0.3-0.5-0.5-1.1-0.3-1.8
		c0.1-0.4,0.2-0.5,0.4-0.5c0.2,0,0.5-0.2,0.7-0.3c0.3-0.2,0.4-0.3,0.5-0.1c0.1,0.1,0.1,0,0.2-0.4c0-0.3,0.1,3.2,0.1,7.8
		c0.1,4.6,0.1,8.4,0,8.5c0,0.1-1.8,0.1-4,0.1C296.8,142.4,296.3,142.3,297.8,142.3z M279.5,125.4c0-0.1,0.2-0.3,0.6-0.6l0.6-0.5
		l0.7,0.3c0.4,0.1,0.7,0.2,0.8,0.2c0,0-0.1-0.2-0.2-0.4c-0.4-0.5-0.3-0.8,0.2-1.4c0.4-0.5,0.4-0.5,0.1-0.4c-1.3,0.3-1.3,0.3-1.7-0.3
		c-0.4-0.7-0.6-0.7-0.6-0.2c0,0.2-0.1,0.5-0.1,0.7c-0.1,0.3-0.2,0.4-0.8,0.4c-0.4,0-0.7,0-0.8,0.1c-0.1,0.1,0.2,0.2,0.6,0.4
		c0.6,0.3,0.7,0.3,0.7,0.8c0,0.3-0.1,0.5-0.1,0.6c-0.2,0.1,0,0.5,0.2,0.5C279.5,125.6,279.5,125.5,279.5,125.4z M277.6,109.5
		c0.3,0,0.8,0,1,0.1c0.5,0.1,0.5,0.1,0.4-0.2c-0.1-0.2-0.2-0.3-0.3-0.4c-0.1,0-0.2-0.2-0.3-0.4c-0.1-0.2-0.1-0.4,0.4-0.9
		c0.6-0.7,0.6-0.7-0.4-0.3l-0.7,0.2l-0.5-0.6l-0.5-0.5l-0.2,0.6c-0.2,0.7-0.5,1-1.2,1.2c-0.5,0.1-0.4,0.3,0.3,0.5
		c0.5,0.1,0.6,0.4,0.4,1.3l-0.1,0.4l0.6-0.6C276.9,109.6,277.1,109.5,277.6,109.5z"/>
	<path class="st13" d="M264.2,134.1c-0.3-0.4-0.3-0.5-0.2-0.6c0.4-0.2,0.7,0,0.7,0.4C264.8,134.6,264.6,134.7,264.2,134.1z"/>
	<path class="st13" d="M283.7,113.2c-0.4-0.2-0.4-0.2-0.1-0.2c0.2,0,0.4,0,0.5,0.1C284.5,113.3,284.2,113.4,283.7,113.2z"/>
	<path class="st13" d="M303.8,99.7c0-0.7-0.1-0.9-0.3-1c-0.2-0.1-0.7-0.9-1.1-1.7c-0.1-0.2-0.3-0.5-0.4-0.6
		c-0.1-0.1-0.2-0.3-0.2-0.4c0-0.1-0.1-0.4-0.2-0.5c-0.1-0.2-0.2-0.4-0.1-0.4c0-0.1-0.2-0.2-0.6-0.2c-0.4,0,0.1-0.1,1.1-0.1
		c1.3,0,1.8,0,1.8,0.2c0,0.1,0,1.4,0,3C303.9,99.3,303.9,100.2,303.8,99.7z"/>
</g>
<g id="layer3_2_">
	<path class="st14" d="M243.5,142.3c0.5,0,0.5-0.1,0.2-0.3c-0.2-0.1-0.3-0.3-0.3-0.4c0-0.1-0.2-0.7-0.6-1.4
		c-0.3-0.7-0.6-1.3-0.6-1.4c0-0.1-0.1-0.4-0.2-0.5c-0.2-0.3-0.7-1.6-0.9-2.3c0-0.2-0.2-0.5-0.2-0.7c-0.3-0.7-0.8-2.8-0.7-3.2
		c0-0.2-0.1-0.4-0.2-0.6c-0.1-0.1-0.2-0.6-0.2-1.1c0-0.8,0-0.8,0.3-0.8c0.5,0.1,1.9,1.8,2.2,2.7c0.1,0.2,0.3,0.5,0.5,0.5
		c0.2,0.1,0.4,0.3,0.4,0.5c0,0.2,0.3,0.6,0.6,0.8c0.3,0.2,0.5,0.5,0.5,0.5c0,0.1,0.2,0.4,0.5,0.8c0.6,1,0.8,1.2,0.9,1.5
		c0.1,0.1,0.3,0.5,0.6,1s0.5,0.8,0.5,0.8c0,0,0.1,0.2,0.3,0.4c0.2,0.2,0.4,0.6,0.6,0.9c0.2,0.3,0.3,0.5,0.4,0.5
		c0.2,0,0.7,1.3,0.6,1.4c-0.1,0.1,1.4,0.2,4,0.2c2.3,0,1,0-2.9,0S243.2,142.3,243.5,142.3z"/>
	<path class="st14" d="M260.6,142.3c1.6,0,2.6-0.1,2.4-0.2c-0.2-0.1-0.3-0.2-0.3-0.3c0-0.1-0.4-0.8-1-1.6c-0.5-0.8-1-1.7-1.2-2
		c-0.1-0.3-0.5-1-0.8-1.5c-0.3-0.6-0.6-1.1-0.6-1.1s-0.2-0.4-0.4-0.7c-0.2-0.3-0.4-0.7-0.4-0.7c0-0.1-0.1-0.4-0.3-0.7
		c-0.2-0.4-0.4-0.7-0.7-0.8c-0.4-0.1-0.4-0.2-0.3-0.5c0.1-0.3,0.1-0.4-0.1-0.4c-0.4,0-0.5-0.2-0.2-0.4c0.2-0.1,0.2-0.2,0.1-0.2
		c-0.1-0.1-0.2-0.3-0.2-0.5s-0.1-0.5-0.2-0.7c-0.1-0.2-0.2-0.4-0.2-0.6s-0.2-0.6-0.3-0.9s-0.3-0.7-0.3-0.8s-0.1-0.2-0.1-0.3
		c-0.1-0.1-0.2-0.5-0.3-1s-0.3-1.1-0.4-1.4c-0.1-0.3-0.3-0.7-0.3-0.9c0-0.3-0.2-1.2-0.4-1.5c-0.2-0.4,0.4-0.9,1.2-1l0.7-0.1l0.6,0.9
		c0.3,0.5,0.7,1,0.8,1.1c0.2,0.2,1,1.4,1,1.6c0,0.1,0.2,0.3,0.4,0.5c0.2,0.2,0.4,0.5,0.4,0.6c0,0.1,0.2,0.3,0.3,0.6
		c0.2,0.2,0.3,0.4,0.3,0.5c0,0.1,0.3,0.5,0.7,1c0.6,0.9,1,1.5,1.3,2c0.1,0.1,0.4,0.6,0.8,1.1c0.7,1,0.8,1.3,0.7,1.5
		c-0.1,0.1,0,0.2,0.2,0.3c0.2,0.1,0.6,0.3,0.8,0.5c0.3,0.3,0.3,0.4,0.2,1c-0.1,0.4-0.1,0.7-0.1,0.7c0,0,0.2-0.1,0.5-0.3
		c0.5-0.4,0.7-0.4,0.6,0.1c-0.1,0.2,0.1,0.4,0.4,0.7c0.2,0.2,0.4,0.4,0.4,0.5c0,0.1,0.3,0.5,0.6,0.8c0.3,0.4,0.9,1.1,1.3,1.5
		c0.4,0.5,1.1,1.4,1.7,2c0.5,0.6,1,1.2,1,1.3s0.3,0.2,0.6,0.2c0.3,0-0.1,0-1,0l-1.6,0l-0.6-0.7c-0.7-0.8-1.1-1.2-2.1-2.3
		c-1.2-1.4-2.6-2.9-2.8-2.9s0,0.7,0.2,0.9c0.1,0.1,0.3,0.5,0.5,0.9c0.2,0.4,0.8,1.4,1.3,2.1c0.5,0.7,1,1.4,1,1.5
		c0.1,0.1,0.2,0.3,0.2,0.3c0.2,0.2-1.5,0.3-5.1,0.2l-3.7,0L260.6,142.3z"/>
	<path class="st14" d="M303.8,132.5c0-3.7,0-6.5-0.1-6.2c0,0.3-0.1,0.5-0.2,0.5c-0.4,0-1.1,0.5-1.1,0.7c0,0.1-0.1,0.3-0.1,0.3
		c-0.2,0.1-0.2,0.5,0.1,0.9c0.2,0.3,0.3,0.7,0.3,1.7c0.1,0.9,0.1,1.4,0.3,1.6c0.1,0.1,0.2,0.5,0.3,0.7c0,0.2,0.2,0.5,0.2,0.5
		c0.1,0,0.1,0.8,0.1,1.9c0,1.5,0,1.9-0.2,1.8c-0.1,0-0.2,0-0.3,0.1c-0.1,0.1-0.2,0.1-0.2,0c-0.1-0.1-0.3-0.2-0.5-0.2
		c-0.2,0-0.6-0.1-0.8-0.2c-0.2-0.1-0.6-0.3-0.9-0.4c-0.6-0.2-2.3-1-2.7-1.2c-0.1-0.1-0.3-0.2-0.4-0.2c-0.3-0.1-0.3-0.1-2-1.1
		c-0.8-0.4-1.6-0.9-1.8-1.1c-0.2-0.2-0.5-0.3-0.6-0.3c-0.1,0-0.2-0.1-0.4-0.3s-0.3-0.3-0.4-0.3c-0.1,0-0.6-0.3-1-0.7
		c-0.5-0.4-1.5-1.2-2.2-1.8c-1.3-1-5.9-5.7-6.3-6.5c-0.1-0.2-0.4-0.4-0.5-0.4c-0.2,0-0.3-0.1-0.3-0.3c0-0.3-1.2-2.1-1.7-2.6
		c-0.2-0.2-0.3-0.4-0.3-0.5s-0.1-0.2-0.2-0.2c-0.1,0-0.3-0.1-0.4-0.3s-0.2-0.3-0.1-0.3c0.1,0,0-0.2-0.1-0.3
		c-0.1-0.2-0.3-0.6-0.3-0.9c-0.1-0.3-0.2-0.6-0.3-0.7c-0.1-0.1-0.2-0.2-0.2-0.3s-0.2-0.3-0.4-0.4c-0.3-0.2-0.4-0.5-0.4-1
		c0-0.4-0.1-0.8-0.2-1c-0.1-0.2-0.2-0.5-0.3-0.6c-0.1-0.2-0.2-0.7-0.2-1.2c0-0.5-0.1-0.9-0.2-0.9c-0.1,0-0.1,0.1-0.1,0.2
		c0,0.1-0.1,0.3-0.2,0.4c-0.2,0.2-0.2,0.2,0,0.1c0.1,0,0.3,0,0.3,0.1c0.1,0.1-0.1,0.1-0.4,0.1c-0.2,0-0.4,0-0.4-0.1
		c0.1,0,0-0.2-0.1-0.3c-0.1-0.1-0.1-0.2,0.1-0.3c0.2-0.1,0.3-0.3,0.3-0.4c0-0.4,0.9-1.3,1.4-1.3c0.2,0,0.4,0.1,0.5,0.1
		c0.1,0.2,0.9,0.2,1.1,0c0.1-0.1,0.3,0,0.6,0.4c0.5,0.7,2.1,1.6,2.8,1.6c0.2,0,0.5,0.1,0.6,0.2c0.2,0.3,0.8,0.3,0.9-0.1
		c0-0.2,0.2-0.3,0.6-0.4c0.7-0.1,1-0.3,0.9-0.6c0-0.1,0-0.4,0.2-0.7c0.1-0.3,0.3-0.7,0.4-1c0.1-0.3,0.3-0.6,0.3-0.8
		c0.1-0.1,0.2-0.7,0.2-1.2c0.1-1.6,0.4-2.4,0.8-3c0.2-0.3,0.5-0.7,0.5-0.9c0-0.2,0.2-0.3,0.5-0.3c0.3,0,0.6,0.1,1,0.5
		c0.3,0.3,0.7,0.6,0.8,0.6c0.1,0,0.4,0.2,0.6,0.5c0.2,0.3,0.5,0.5,0.6,0.5c0.1,0,0.2,0.1,0.3,0.3c0.1,0.2,1.4,1.6,2.9,3.1
		c3.4,3.6,4.9,4.9,6.7,6.5c0.5,0.4,1.2,1,1.5,1.4l0.6,0.6l0.1-0.7c0-0.4,0.1,4.6,0.1,11.2c0,6.5,0,11.8,0,11.8
		C303.8,139.2,303.8,136.2,303.8,132.5z M292.5,128.2c0.1,0,0.2-0.2,0.2-0.3c0-0.3-0.7-1.7-1-2.1c-0.1-0.2-0.4-0.6-0.7-0.9
		c-0.7-1.1-3-3.4-3.8-3.8c-0.2-0.1-0.5-0.3-0.8-0.5c-1.3-0.9-2.3-1.2-2.6-0.9c-0.1,0.1,1,2.3,1.3,2.7c0.1,0.1,0.4,0.5,0.7,0.9
		c0.6,0.7,2.1,2.3,2.8,2.9c0.3,0.2,0.6,0.5,0.6,0.6c0.1,0.2,2.6,1.7,2.8,1.7C292.3,128.3,292.4,128.2,292.5,128.2z M300.6,118.9
		c0.2-0.2,0.2-0.2,0.1-0.4c-0.1-0.1-0.2-0.3-0.2-0.4c0-0.1-0.2-0.4-0.4-0.6c-0.2-0.3-0.4-0.5-0.4-0.6c0-0.1-0.4-0.5-0.8-0.9
		c-0.4-0.4-1-1-1.3-1.3c-0.3-0.3-1-1-1.6-1.4c-0.6-0.4-1.1-0.9-1.3-1c-0.1-0.1-0.5-0.3-0.8-0.3c-0.5-0.1-0.6,0-0.7,0.4
		c-0.3,0.6-0.3,0.6,0.2,1.7c1,2.1,2.1,3.4,3.8,4.2c1.6,0.8,1.7,0.9,2.5,0.9C300,119.1,300.4,119,300.6,118.9z M282.3,116.4
		c0.5,0.1,0.9,0.2,0.9,0.2c0,0-0.1-0.3-0.4-0.6c-0.2-0.3-0.4-0.6-0.4-0.7c0-0.1,0.2-0.4,0.5-0.7c0.3-0.3,0.5-0.5,0.4-0.5
		c0,0-0.4,0.1-0.8,0.2l-0.7,0.2l-0.3-0.3c-0.2-0.2-0.4-0.5-0.5-0.7l-0.2-0.4l-0.1,0.6c-0.2,1-0.3,1.2-0.9,1.4
		c-0.9,0.3-0.9,0.4-0.2,0.6l0.6,0.2l0,0.7l0,0.7l0.7-0.5l0.7-0.5L282.3,116.4z"/>
	<path class="st14" d="M257.3,135.1c0-0.1,0-0.2,0.1-0.3c0.1-0.1,0.2-0.1,0.3,0c0,0.1,0,0.2-0.1,0.3
		C257.4,135.1,257.3,135.2,257.3,135.1z"/>
	<path class="st14" d="M256.4,133.1c0-0.1,0-0.2,0.1-0.3c0.1-0.1,0.2-0.1,0.3,0c0,0.1,0,0.2-0.1,0.3
		C256.6,133.1,256.5,133.1,256.4,133.1z"/>
	<path class="st14" d="M255.7,131.8c-0.1-0.2,0.2-0.3,0.3-0.2c0.2,0.1,0.1,0.4-0.1,0.4C255.9,131.9,255.8,131.8,255.7,131.8z"/>
	<path class="st14" d="M247.6,127.7c-0.1-0.1,0-0.2,0-0.3c0.1-0.1,0.2-0.1,0.2,0c0.1,0.1,0,0.2,0,0.3
		C247.7,127.8,247.7,127.8,247.6,127.7z"/>
	<path class="st14" d="M275.8,110.5c-0.1-0.2,0-1.2,0.1-1.3c0.2-0.2,0.4,0.1,0.3,0.3c-0.1,0.1-0.1,0.3-0.1,0.6
		C276,110.4,275.9,110.7,275.8,110.5z"/>
	<path class="st14" d="M278.9,109.3c-0.1-0.1,0-0.2,0-0.3c0.1-0.1,0.2-0.1,0.2,0c0.1,0.1,0,0.2,0,0.3
		C279.1,109.4,279,109.4,278.9,109.3z"/>
	<path class="st14" d="M275.9,108.2c-0.2-0.7,0.1-1.1,0.5-0.9c0.3,0.1,0.1,0.9-0.2,0.9C276,108.3,275.9,108.3,275.9,108.2z"/>
	<path class="st14" d="M278.7,107c0-0.2,0.1-0.3,0.1-0.3c0,0,0.1,0.1,0.1,0.3c0,0.2-0.1,0.3-0.1,0.3
		C278.8,107.3,278.7,107.1,278.7,107z"/>
</g>
<g id="layer4_1_">
	<path class="st15" d="M253.2,135.9c0-0.1,0-0.3,0-0.4c0.1-0.1,0.1-0.2,0.1-0.3c0-0.1,0.1-0.2,0.1-0.2c0.2-0.1,0.2,1,0,1.1
		C253.4,136.1,253.3,136,253.2,135.9z"/>
	<path class="st15" d="M268,135.1c-0.1-0.2-0.1-0.3-0.3-0.1c-0.1,0.1-0.3,0.1-0.5,0c-0.2-0.1-0.4-0.2-0.5-0.2
		c-0.5-0.1-0.6-0.2-0.5-0.4c0.1-0.1,0.2-0.1,0.5,0c0.5,0.3,1,0.3,1,0.1c0-0.1-0.1-0.4-0.3-0.6c-0.3-0.5-0.3-0.6-0.1-0.9
		c0.3-0.3,0.5-0.2,0.3,0.2c-0.1,0.2-0.1,0.4,0.4,1c0.3,0.4,0.5,0.8,0.4,0.9C268.3,135.5,268.1,135.4,268,135.1z"/>
	<path class="st15" d="M265.3,135.1c0-0.1,0-0.2,0.1-0.3c0.1-0.1,0.2-0.1,0.3,0c0,0.1,0,0.2-0.1,0.3
		C265.4,135.1,265.3,135.2,265.3,135.1z"/>
	<path class="st15" d="M256.7,134.7c0-0.1-0.1-0.5-0.3-0.9c-0.4-0.7-0.4-0.9,0.1-1.3c0.5-0.3,0.5-0.2,0.2,0.3
		c-0.2,0.4-0.2,0.5,0.1,1c0.2,0.4,0.3,0.6,0.2,0.7c-0.1,0.1-0.1,0.2-0.1,0.2c0.1,0.1,0,0.1-0.1,0.1
		C256.7,134.9,256.7,134.8,256.7,134.7z"/>
	<path class="st15" d="M264.4,134.8c-0.1-0.1,0-0.2,0-0.3c0.1-0.1,0.2-0.1,0.2,0c0.1,0.1,0,0.2,0,0.3
		C264.6,134.9,264.5,134.9,264.4,134.8z"/>
	<path class="st15" d="M253.5,134.5c-0.1-0.2-0.1-0.9,0.1-0.9c0.1,0,0.1,0,0.1,0.1c0,0.1,0,0.2,0.1,0.4
		C253.9,134.4,253.7,134.8,253.5,134.5z"/>
	<path class="st15" d="M254.7,134.5c0-0.1,0-0.2,0.1-0.3c0.2-0.2,1,0.1,0.9,0.2C255.6,134.6,254.8,134.6,254.7,134.5z"/>
	<path class="st15" d="M264.5,133.9c-0.2-0.4,0-0.5,0.3-0.2c0.1,0.1,0.1,0.3,0,0.4C264.7,134.2,264.6,134.1,264.5,133.9z"/>
	<path class="st15" d="M263.4,133.4c-0.2-0.1-0.3-0.2-0.3-0.1c0,0.1-0.1,0-0.3-0.2c-0.2-0.2-0.2-0.3-0.1-0.4
		c0.1-0.1,0.2-0.1,0.4,0.1c0.1,0.2,0.3,0.3,0.4,0.3c0.4,0.1,0.6,0.2,0.5,0.3C263.9,133.7,263.8,133.7,263.4,133.4z"/>
	<path class="st15" d="M252,133.3c-0.2-0.1-0.3-0.2-0.3-0.3c0.1-0.2,1.2-0.6,1.3-0.5c0,0,0.1,0,0.2-0.1c0.1-0.1,0.2-0.1,0.3-0.1
		c0.2,0.1,0,0.4-0.2,0.3c-0.3,0-0.8,0.2-0.8,0.5C252.5,133.5,252.4,133.5,252,133.3z"/>
	<path class="st15" d="M263.3,132.8c-0.1-0.2,0.3-0.3,0.5-0.2c0.1,0,0.1,0.2,0.1,0.2C263.8,132.9,263.4,132.9,263.3,132.8z"/>
	<path class="st15" d="M267.9,132.8c0-0.1,0-0.2,0.1-0.3c0.1-0.1,0.1-0.3,0-0.4c-0.2-0.2,0-0.3,0.6-0.4c0.3,0,0.5,0,0.5,0.1
		C269.1,132.1,268,133,267.9,132.8z"/>
	<path class="st15" d="M264.1,132.6c-0.1-0.2,0.3-0.3,0.5-0.2c0.1,0,0.1,0.2,0.1,0.2C264.6,132.8,264.3,132.8,264.1,132.6z"/>
	<path class="st15" d="M253.9,132.2c-0.1-0.1,0-0.2,0-0.3c0.1-0.1,0.2-0.1,0.2,0c0.1,0.1,0,0.2,0,0.3
		C254.1,132.3,254,132.3,253.9,132.2z"/>
	<path class="st15" d="M265,132.2c-0.1-0.2,0.2-1.8,0.4-1.9c0.2-0.1,0.5,0.1,0.5,0.3c0,0.1,0.2,0.4,0.4,0.7c0.3,0.5,0.5,0.6,0.8,0.6
		c0.2,0,0.4,0.1,0.4,0.1c0,0.1-0.2,0.1-0.5,0.1c-0.5,0-0.6,0-0.9-0.6c-0.2-0.3-0.4-0.6-0.5-0.6c-0.1,0-0.2,0.3-0.2,0.6
		C265.3,132.2,265.1,132.4,265,132.2z"/>
	<path class="st15" d="M255,131.5c-0.2-0.4-0.4-0.7-0.3-0.8c0.1,0,0.3,0.1,0.4,0.4c0.3,0.6,0.7,0.9,0.9,0.6c0.1-0.1,0.2-0.1,0.3-0.1
		c0.1,0,0.2,0,0.3-0.1c0-0.1,0.2-0.1,0.3-0.1c0.1,0,0.2,0,0.3-0.1c0.2-0.2,0.5,0,0.4,0.2c0,0.1-0.2,0.1-0.3,0.1
		c-0.1,0-0.2,0-0.3,0.1c0,0.1-0.2,0.1-0.3,0.1c-0.1,0-0.2,0-0.3,0.1c0,0.1-0.2,0.1-0.3,0.1c-0.1,0-0.2,0-0.3,0.1
		C255.7,132.3,255.4,132.2,255,131.5z"/>
	<path class="st15" d="M274.1,131.9c-0.1-0.1-0.1-0.5,0-0.9l0.1-0.7l-1-0.5c-1.2-0.6-1.1-0.7,0.3-0.9l0.9-0.1l0.1-0.7
		c0.1-1.2,0.4-1.2,1.1-0.1l0.4,0.6l0.9-0.1c1.2-0.1,1.4,0.1,0.6,0.8l-0.6,0.5l0.4,0.6c0.8,1.2,0.6,1.4-0.8,0.7l-0.7-0.3l-0.5,0.4
		C274.6,131.9,274.2,132.1,274.1,131.9z"/>
	<path class="st15" d="M254.1,131.5c-0.1-0.1,0-0.2,0-0.3c0.1-0.1,0.2-0.1,0.2,0c0.1,0.1,0,0.2,0,0.3
		C254.2,131.6,254.1,131.6,254.1,131.5z"/>
	<path class="st15" d="M245.8,131c-0.1-0.1,0-0.3,0.1-0.4c0.1-0.1,0.1-0.2,0.1-0.3c-0.1,0-0.1-0.2,0-0.3c0.1-0.2,0.1-0.2,0.2-0.1
		c0.1,0.1,0.1,0.3,0,0.4c-0.1,0.1-0.1,0.4-0.1,0.5C246.2,131.1,245.9,131.2,245.8,131z"/>
	<path class="st15" d="M254.2,130.7c-0.1-0.1,0-0.2,0-0.3s0.2-0.1,0.2,0c0.1,0.1,0,0.2,0,0.3S254.3,130.9,254.2,130.7z"/>
	<path class="st15" d="M246.6,130.7c0-0.2,0.4-0.8,0.6-0.9c0.1,0,0.5,0,0.8,0.1c0.3,0.1,0.7,0.2,0.9,0.2c0.4,0,0.6,0.2,0.4,0.4
		c-0.1,0.1-0.4,0-0.9-0.2c-0.8-0.3-0.8-0.3-1.2,0C246.7,130.7,246.6,130.8,246.6,130.7z"/>
	<path class="st15" d="M248.5,129.5c-0.3-0.4-0.3-0.5-0.2-0.5c0.2,0,0.6,0.5,0.4,0.6C248.7,129.7,248.6,129.6,248.5,129.5z"/>
	<path class="st15" d="M245.1,129.4c-0.3-0.1-0.6-0.2-0.7-0.3c-0.2-0.1-0.2-0.1,0-0.3c0.1-0.1,0.4-0.2,0.5-0.3
		c0.6-0.1,1.2-0.4,1.4-0.7c0.2-0.3,0.4-0.2,0.4,0.1c0,0.3-0.6,0.6-1,0.7c-0.5,0.1-0.6,0.3-0.1,0.5c0.2,0.1,0.4,0.2,0.3,0.3
		C245.8,129.6,245.8,129.6,245.1,129.4z"/>
	<path class="st15" d="M249,128c0-0.1,0.1-0.3,0.3-0.5c0.4-0.4,0.7-0.4,0.5,0.1C249.5,127.9,249.1,128.2,249,128z"/>
	<path class="st15" d="M247.4,127.5c-0.3-0.5-0.1-0.8,0.2-0.3c0.2,0.2,0.3,0.3,0.7,0.2c0.3,0,0.5,0,0.5,0.1c0,0.1,0,0.1-0.1,0.1
		c-0.1,0-0.3,0.1-0.5,0.1C247.7,128,247.7,128.1,247.4,127.5z"/>
	<path class="st15" d="M246.5,127.3c-0.1-0.1,0-0.2,0-0.3c0.1-0.1,0.2-0.1,0.2,0c0.1,0.1,0,0.2,0,0.3
		C246.6,127.4,246.6,127.4,246.5,127.3z"/>
	<path class="st15" d="M246.6,126.5c-0.1-0.3,0.2-0.6,0.4-0.4c0.1,0.1,0.1,0.2-0.1,0.4C246.7,126.7,246.7,126.7,246.6,126.5z"/>
	<path class="st15" d="M279.1,125.7c0-0.1,0-0.4,0-0.8c0.1-0.7,0.3-0.8,0.4-0.3c0.1,0.4,0.2,0.4,0.6,0c0.3-0.4,0.6-0.3,0.4,0.2
		c-0.1,0.1-0.2,0.3-0.3,0.3c-0.1,0-0.3,0.2-0.5,0.4C279.4,125.9,279.2,125.9,279.1,125.7z"/>
	<path class="st15" d="M282.2,125.3c0-0.1,0-0.2,0.1-0.3c0.1-0.2,0.2-0.2,0.3,0c0.1,0.1,0.1,0.2,0.1,0.3
		C282.5,125.4,282.3,125.5,282.2,125.3z"/>
	<path class="st15" d="M281.2,124.9c-0.6-0.3-0.5-0.5,0.1-0.3c0.5,0.2,0.7,0.1,0.4-0.3c-0.3-0.5,0.1-0.5,0.4,0
		c0.2,0.3,0.2,0.5,0.2,0.5c-0.1,0-0.1,0-0.1,0c0-0.1-0.1,0-0.2,0.1C281.8,125.2,281.8,125.2,281.2,124.9z"/>
	<path class="st15" d="M278.2,123.7c-0.6-0.2-0.9-0.5-0.8-0.6c0.1-0.2,0.7-0.1,0.9,0.1c0.1,0.1,0.3,0.3,0.5,0.4
		c0.2,0.1,0.3,0.2,0.2,0.3C278.9,124,278.9,124,278.2,123.7z"/>
	<path class="st15" d="M242.6,123.5c-0.1-0.1,0-0.2,0-0.3c0.1-0.1,0.2-0.1,0.2,0c0.1,0.1,0,0.2,0,0.3
		C242.8,123.7,242.7,123.7,242.6,123.5z"/>
	<path class="st15" d="M281.8,123.4c0-0.1,0.1-0.3,0.2-0.4c0.3-0.3,0.6-0.3,0.4,0.1C282.3,123.4,281.9,123.6,281.8,123.4z"/>
	<path class="st15" d="M278.5,123.1c-0.1-0.2,0.3-0.3,0.6-0.2c0.3,0.1,0.1,0.4-0.2,0.4C278.7,123.2,278.5,123.2,278.5,123.1z"/>
	<path class="st15" d="M279.3,123c-0.1-0.2,0.2-0.8,0.4-0.7c0.2,0.1,0.2,0.4-0.1,0.6C279.5,123.1,279.4,123.1,279.3,123z"/>
	<path class="st15" d="M242.8,122.8c-0.1-0.1,0-0.2,0-0.3c0.1-0.1,0.1-0.2,0.1-0.3c0-0.1,0-0.2,0.1-0.3c0.2-0.1,0.3,0.2,0.2,0.4
		c-0.1,0.1-0.1,0.2-0.1,0.3C243.1,122.8,242.9,123,242.8,122.8z"/>
	<path class="st15" d="M243.7,122.7c-0.1-0.1,0-0.2,0.1-0.2c0.2-0.2,0.8-0.2,0.9-0.1c0,0.1,0.2,0.1,0.3,0.1c0.2-0.1,0.4,0.2,0.2,0.3
		c-0.1,0-0.2,0-0.3,0c-0.3-0.2-0.7-0.2-0.9,0C243.9,122.8,243.8,122.8,243.7,122.7z"/>
	<path class="st15" d="M280.4,122.3c-0.3-0.4-0.4-0.4-0.5-0.3c-0.2,0.1-0.2,0.1-0.3-0.1c0-0.1-0.1-0.3,0-0.4c0.1-0.3,0.6-0.1,1,0.5
		c0.3,0.4,0.4,0.5,0.7,0.5c0.2,0,0.5-0.1,0.5-0.1c0.1-0.1,0.2-0.1,0.3,0c0.2,0.1,0,0.4-0.2,0.3c-0.1,0-0.2,0-0.3,0.1
		C281.5,123,280.7,122.7,280.4,122.3z"/>
	<path class="st15" d="M282.6,122.5c-0.2-0.1-0.2-0.2-0.1-0.3c0.1-0.1,0.3,0,0.4,0.1C283.2,122.6,282.9,122.7,282.6,122.5z"/>
	<path class="st15" d="M242.5,122c-0.1-0.1-0.1-0.1-0.2-0.1c-0.2,0.1-0.8-0.2-0.8-0.4c0-0.4,0.3-0.4,0.6,0c0.2,0.2,0.4,0.3,0.5,0.3
		c0.1,0,0.1,0,0.2,0.1c0.1,0.1,0,0.2,0,0.2C242.6,122.1,242.5,122,242.5,122z"/>
	<path class="st15" d="M245,121.4c-0.1-0.2,0-0.6,0.2-0.7c0.3-0.1,0.4,0.1,0.1,0.5C245.2,121.4,245,121.5,245,121.4z"/>
	<path class="st15" d="M242.1,121.2c0-0.1,0.2-0.3,0.6-0.5c0.6-0.3,1-0.3,0.8,0C243.3,121,242.1,121.4,242.1,121.2z"/>
	<path class="st15" d="M243.3,120.1c-0.1-0.1,0-0.2,0-0.3c0.1-0.1,0.2-0.1,0.2,0c0.1,0.1,0,0.2,0,0.3
		C243.5,120.2,243.4,120.2,243.3,120.1z"/>
	<path class="st15" d="M244.2,120c-0.1-0.1-0.1-0.2,0-0.3c0.1,0,0.2,0,0.3,0.1c0.1,0.1,0.1,0.2,0,0.3
		C244.4,120.2,244.3,120.1,244.2,120z"/>
	<path class="st15" d="M245.1,120c-0.1-0.1,1.2-0.7,1.4-0.6c0.2,0.1,0.2,0.1,0,0.4c-0.1,0.2-0.2,0.3-0.2,0.3
		C245.7,120.2,245.1,120.1,245.1,120z"/>
	<path class="st15" d="M243.5,119.4c-0.1-0.1,0.1-0.7,0.2-0.7c0,0,0.1,0.1,0.2,0.2c0.1,0.2,0.1,0.3-0.1,0.4
		C243.6,119.4,243.5,119.5,243.5,119.4z"/>
	<path class="st15" d="M279.7,117.7c-0.1-0.3,0-0.7,0.2-0.6c0.1,0,0.1,0.2,0.1,0.4C280.1,117.8,279.8,118,279.7,117.7z"/>
	<path class="st15" d="M280.6,117.1c0-0.1,0-0.2,0.1-0.3c0.1-0.1,0.2-0.1,0.3,0c0,0.1,0,0.2-0.1,0.3
		C280.7,117.1,280.6,117.2,280.6,117.1z"/>
	<path class="st15" d="M279.9,116.8c-0.1-0.1,0-0.2,0-0.3c0.1-0.1,0.2-0.1,0.2,0c0.1,0.1,0,0.2,0,0.3
		C280,116.9,279.9,116.9,279.9,116.8z"/>
	<path class="st15" d="M282.9,116.8c-0.1-0.2,0.2-0.3,0.3-0.2c0.2,0.1,0.1,0.4-0.1,0.4C283,116.9,283,116.9,282.9,116.8z"/>
	<path class="st15" d="M282.9,116c-0.1-0.1-0.1-0.2,0-0.3c0.1,0,0.2,0,0.3,0.1c0.1,0.1,0.1,0.2,0,0.3
		C283.1,116.1,282.9,116.1,282.9,116z"/>
	<path class="st15" d="M279,115.8c-0.1-0.2,0.2-0.3,0.3-0.2c0.2,0.1,0.1,0.4-0.1,0.4C279.2,115.9,279.1,115.8,279,115.8z"/>
	<path class="st15" d="M278.2,115.5c-0.1-0.2,0.2-0.5,0.3-0.3c0.1,0.1,0.1,0.2-0.1,0.3C278.4,115.6,278.3,115.6,278.2,115.5z"/>
	<path class="st15" d="M243.6,115.2c-0.1-0.1,0-0.4,0.1-0.8c0.1-0.6,0.1-0.7-0.1-0.9c-0.2-0.2-0.2-0.2,0-0.3
		c0.3-0.1,0.8,0.3,0.6,0.5c-0.2,0.2-0.1,0.6,0.2,0.8c0.2,0.1,0.1,0.2-0.2,0.5C243.9,115.2,243.6,115.3,243.6,115.2z"/>
	<path class="st15" d="M279.5,114.9c0-0.1,0.1-0.1,0.1-0.1c0.1,0,0.3-0.1,0.5-0.3c0.4-0.4,0.7-0.2,0.3,0.2
		C280.2,115,279.5,115.1,279.5,114.9z"/>
	<path class="st15" d="M246.2,114.1c-0.1-0.1-0.4-0.1-0.7-0.1c-0.7,0-0.8-0.1-0.6-0.4c0.2-0.1,0.3-0.1,0.4,0
		c0.1,0.1,0.2,0.1,0.3,0.1c0.1,0,0.3,0,0.4,0.1c0.3,0.3,0.4-0.1,0.1-0.6c-0.2-0.4-0.2-0.6-0.1-0.7c0.2-0.3,0.4-0.1,0.4,0.3
		c0,0.2,0.1,0.5,0.3,0.7c0.2,0.3,0.2,0.5,0.1,0.6C246.6,114.2,246.4,114.2,246.2,114.1z"/>
	<path class="st15" d="M282.8,114c-0.1-0.2,0.2-0.3,0.3-0.2c0.2,0.1,0.1,0.4-0.1,0.4C282.9,114.2,282.8,114.1,282.8,114z"/>
	<path class="st15" d="M283.7,113.9c0-0.1,0-0.3,0.1-0.4c0.2-0.2,0.6,0,0.5,0.2C284.2,114.1,283.8,114.2,283.7,113.9z"/>
	<path class="st15" d="M280.4,113.9c-0.1-0.1,0-0.2,0-0.3c0.1-0.1,0.2-0.1,0.2,0c0.1,0.1,0,0.2,0,0.3
		C280.6,114,280.5,114,280.4,113.9z"/>
	<path class="st15" d="M281.2,113.6c-0.1-0.2-0.2-0.3-0.3-0.3c-0.2,0-0.4-0.2-0.2-0.4c0.1-0.2,0.5,0,0.8,0.5
		c0.1,0.2,0.2,0.4,0.1,0.4C281.4,113.9,281.2,113.8,281.2,113.6z"/>
	<path class="st15" d="M242.6,113.3c-0.3-0.1-0.3-0.2-0.2-0.3c0.1-0.1,0.2-0.2,0.2-0.2c0.1,0,0.2,0,0.4-0.1c0.2-0.1,0.3-0.1,0.4,0
		c0,0.1,0,0.2-0.1,0.2c-0.1,0.1-0.2,0.2-0.2,0.3C243.2,113.4,243,113.5,242.6,113.3z"/>
	<path class="st15" d="M244.3,111.7c0-0.1,0-0.3,0-0.4c0.1-0.1,0.1-0.3,0.1-0.5c0.1-0.5,0.3-0.6,0.5-0.4c0.2,0.2,0.2,0.3-0.1,0.5
		c-0.2,0.2-0.3,0.4-0.3,0.5C244.7,111.8,244.4,112,244.3,111.7z"/>
	<path class="st15" d="M246.7,111.5c-0.1-0.2-0.1-0.2-0.4-0.1c-0.2,0.1-0.3,0.1-0.4,0c-0.1-0.1,0-0.2,0.2-0.3
		c0.2-0.1,0.6-0.2,0.8-0.4c0.6-0.2,0.8-0.1,0.5,0.3C247.3,111.6,246.8,111.8,246.7,111.5z"/>
	<path class="st15" d="M245.2,111.4c-0.1-0.1-0.1-0.2,0-0.3c0.1,0,0.2,0,0.3,0.1c0.1,0.1,0.1,0.2,0,0.3
		C245.4,111.5,245.3,111.5,245.2,111.4z"/>
	<path class="st15" d="M275.7,111c-0.2-0.2-0.1-0.6,0.1-0.7c0.4-0.2,0.6,0,0.5,0.4C276.2,111,275.9,111.2,275.7,111z"/>
	<path class="st15" d="M275.9,110c-0.1-0.1,0-0.2,0-0.3c0.1-0.1,0.2-0.1,0.2,0c0.1,0.1,0,0.2,0,0.3C276,110.1,275.9,110.1,275.9,110
		z"/>
	<path class="st15" d="M278.6,109.9c0-0.1,0-0.2,0.1-0.2c0.2-0.1,0.2-0.3-0.1-0.6c-0.2-0.2-0.2-0.4-0.2-0.4c0.1-0.1,0.5,0,0.5,0.2
		c0,0.1,0.1,0.2,0.3,0.4c0.3,0.3,0.3,0.3,0.1,0.6C278.9,110,278.8,110.1,278.6,109.9z"/>
	<path class="st15" d="M277.1,109.7c-0.1-0.2,0.3-0.5,0.5-0.3c0.1,0.1,0.1,0.2-0.1,0.3C277.3,109.8,277.2,109.8,277.1,109.7z"/>
	<path class="st15" d="M277.9,109.7c-0.1-0.2,0.2-0.3,0.3-0.2c0.2,0.1,0.1,0.4-0.1,0.4C278.1,109.8,278,109.8,277.9,109.7z"/>
	<path class="st15" d="M275.5,109.2c-0.1-0.1-0.3-0.1-0.5-0.1c-0.7-0.1-0.8-0.2-0.5-0.5c0.1-0.2,0.3-0.2,0.4-0.2
		c0.1,0,0.2,0,0.3-0.1c0-0.1,0.2-0.1,0.3-0.1c0.1,0,0.2,0,0.3-0.1c0.2-0.2,0.5,0,0.4,0.2c0,0.1-0.2,0.1-0.2,0.1
		c-0.1,0-0.3,0-0.5,0.1c-0.3,0.1-0.3,0.2-0.1,0.3c0.1,0.1,0.3,0.1,0.3,0.1c0.2,0,0.3,0.3,0.1,0.3
		C275.6,109.3,275.5,109.2,275.5,109.2z"/>
	<path class="st15" d="M276.3,107.8c-0.1-0.1,0-0.2,0-0.3c0.1-0.1,0.2-0.1,0.2,0c0.1,0.1,0,0.2,0,0.3
		C276.4,107.9,276.4,107.9,276.3,107.8z"/>
	<path class="st15" d="M277.6,107.7c-0.4-0.2-0.2-0.5,0.4-0.5c0.3,0,0.7-0.1,0.9-0.1s0.2,0,0.3,0.1
		C279.2,107.3,277.8,107.8,277.6,107.7z"/>
	<path class="st15" d="M276.4,107.1c-0.1-0.1,0-0.2,0-0.3c0.1-0.1,0.2-0.1,0.2,0c0.1,0.1,0,0.2,0,0.3
		C276.6,107.2,276.5,107.2,276.4,107.1z"/>
	<path class="st15" d="M279.7,107.1c-0.1-0.1-0.1-0.2,0-0.3c0.2-0.1,0.5,0.2,0.3,0.4C279.9,107.2,279.8,107.2,279.7,107.1z"/>
	<path class="st15" d="M249.4,106.8c-0.2-0.1-0.2-0.2-0.1-0.3c0.1-0.1,0.1-0.2,0.1-0.2c0-0.1,0-0.2,0.1-0.3c0.2-0.2-0.1-0.8-0.3-0.7
		c-0.1,0-0.2,0-0.3-0.1c-0.1-0.1-0.2-0.1-0.3-0.1c-0.1,0-0.2,0-0.3-0.1c0-0.1-0.1-0.1-0.2-0.1s-0.2,0-0.2-0.1c0-0.1,0-0.2,0.2-0.3
		c0.2-0.1,0.3-0.1,0.5,0.1c0.1,0.1,0.3,0.2,0.4,0.2c0.1,0,0.2,0,0.3,0.1c0.1,0.1,0.2,0.1,0.3,0.1c0.3-0.1,0.4,0.3,0.2,0.7
		c-0.2,0.3,0,0.6,0.2,0.5c0.1,0,0.1,0,0.2,0.1C250.2,106.7,249.8,107.1,249.4,106.8z"/>
	<path class="st15" d="M268.1,106.8c-0.1-0.1,0-0.4,0-0.7c0.1-0.5,0.1-0.5-0.7-0.9c-0.4-0.2-0.8-0.5-0.8-0.6c0-0.1,0.4-0.2,0.9-0.2
		c0.9,0,1.3-0.2,1.2-0.5c-0.1-0.2,0.2-0.4,0.3-0.2c0,0.1,0,0.2,0,0.3c-0.1,0.1-0.1,0.3-0.1,0.4c0,0.1-0.1,0.2-0.1,0.2
		c-0.1,0-0.3,0.1-0.4,0.2c-0.3,0.2-0.3,0.2,0,0.4c0.2,0.2,0.3,0.4,0.3,0.7c0,0.5,0.2,0.5,0.5,0.2c0.3-0.3,0.8-0.3,1.2,0
		c0.4,0.2,0.5,0,0.3-0.4c-0.1-0.3-0.2-0.4,0-0.6c0.2-0.3,0.4-0.2,0.3,0.2c0,0.1,0.1,0.5,0.3,0.8c0.4,0.7,0.3,0.9-0.4,0.6
		c-1-0.4-1.3-0.4-1.8,0C268.4,107,268.2,107.1,268.1,106.8z"/>
	<path class="st15" d="M276.9,106.8c-0.1-0.1-0.1-0.2,0-0.3c0.1,0,0.2,0,0.3,0.1c0.1,0.1,0.1,0.2,0,0.3
		C277.1,106.9,277,106.9,276.9,106.8z"/>
	<path class="st15" d="M252.4,106.3c0,0,0-0.2,0-0.3c0-0.1,0-0.4-0.2-0.6c-0.2-0.3-0.2-0.4-0.1-0.4c0.2,0,0.9,1,0.7,1.2
		C252.9,106.4,252.6,106.4,252.4,106.3z"/>
	<path class="st15" d="M250.5,106c-0.1-0.1,0.1-0.3,0.4-0.5c0.3-0.2,0.3,0.2,0,0.4C250.7,106,250.5,106,250.5,106z"/>
	<path class="st15" d="M262.1,104.7c-0.2-0.1-0.6-0.4-0.9-0.5l-0.5-0.3l-0.8,0.3c-0.9,0.4-1.1,0.3-0.9-0.4c0.2-0.8,0.2-0.8-0.5-1.2
		c-1.3-0.7-1.2-1,0.2-0.9l1,0.1l0.1-0.5c0.1-0.3,0.2-0.6,0.3-0.7c0.2-0.2,0.5,0.2,1.1,1.2c0.1,0.1,0.5,0.3,1,0.4
		c0.5,0.1,0.9,0.2,1,0.2c0.2,0.1-0.1,0.5-0.6,0.6c-0.5,0.2-0.6,0.2-0.2,0.8C262.8,104.8,262.7,105.1,262.1,104.7z"/>
	<path class="st15" d="M271,104.8c0-0.1,0-0.1,0-0.2c0.1,0,0-0.1-0.2-0.1c-0.4-0.1-0.4-0.4-0.1-0.4c0.1,0,0.3-0.1,0.5-0.1
		c0.2-0.1,0.3,0,0.5,0.1c0.2,0.2,0.1,0.2-0.2,0.5C271.3,104.8,271.1,104.9,271,104.8z"/>
	<path class="st15" d="M252.3,104.5c0-0.1,0.1-0.2,0.2-0.3c0.2-0.1,0.3-0.3,0.3-0.5c0-0.2,0.2-0.3,0.5-0.3c0.2,0,0.4,0.1,0.5,0.1
		C253.7,103.8,252.4,104.7,252.3,104.5z"/>
	<path class="st15" d="M249,104.4c-0.1-0.2,0.2-0.4,0.3-0.2s0.9-0.5,0.8-0.6c0-0.1,0-0.2,0.1-0.3c0.1-0.1,0.1-0.2,0.1-0.2
		s0-0.1,0.1-0.2c0.1-0.1,0.2-0.3,0.2-0.3c0,0,0-0.1,0.1-0.1c0.2-0.1,0.9,1.1,0.7,1.2c-0.1,0-0.2-0.1-0.3-0.2
		c-0.2-0.3-0.7-0.3-0.6,0.1c0,0.1,0,0.2-0.1,0.3c-0.1,0.1-0.1,0.2-0.1,0.3c0.1,0.2-0.4,0.6-0.6,0.4c-0.1,0-0.2,0-0.2,0.1
		C249.3,104.6,249.1,104.6,249,104.4z"/>
	<path class="st15" d="M269.6,104.3c-0.2-0.4,0-0.5,0.3-0.2c0.1,0.1,0.1,0.3,0,0.4C269.8,104.5,269.7,104.5,269.6,104.3z"/>
	<path class="st15" d="M251.6,103.8c-0.1-0.2,0.3-0.3,0.5-0.2c0.1,0,0.1,0.2,0.1,0.2C252,104,251.7,104,251.6,103.8z"/>
	<path class="st15" d="M269.1,103.5c-0.3-0.3-0.3-0.6,0-0.6c0.2,0,0.6,0.7,0.4,0.8C269.4,103.8,269.2,103.7,269.1,103.5z"/>
</g>
<g id="layer5_1_">
	<path class="st16" d="M245.7,142.3c0.2,0,0.4,0,0.6,0c0.2,0,0,0.1-0.3,0.1S245.5,142.3,245.7,142.3z"/>
	<path class="st16" d="M266,142.3l0.5-0.1l-0.3-0.3c-0.5-0.4-1.8-2.5-2.3-3.4c-0.2-0.4-0.5-0.9-0.5-0.9c-0.1-0.2-0.6-1.4-0.6-1.6
		c0-0.1,0.6-0.4,0.8-0.3c0.1,0,0.1,0.1,0.1,0.1c0,0,0.5,0.6,1,1.2c1.9,2,4.3,4.8,4.3,5c0,0.1,0.2,0.2,0.5,0.3c0.3,0-0.5,0.1-1.8,0.1
		S265.8,142.3,266,142.3z"/>
	<path class="st16" d="M264.1,136c-0.1-0.1,0-0.3,0.1-0.4c0.1-0.1,0.2-0.1,0.2,0.1c0.1,0.1,0,0.3-0.1,0.4
		C264.3,136.2,264.2,136.2,264.1,136z"/>
	<path class="st16" d="M264.7,135.7c0-0.1,0-0.2,0.1-0.3c0.1-0.1,0.2-0.1,0.3,0c0,0.1,0,0.2-0.1,0.3
		C264.9,135.7,264.7,135.7,264.7,135.7z"/>
	<path class="st16" d="M264.3,135.2c-0.1-0.1,0-0.2,0-0.3c0.1-0.1,0.2-0.1,0.2,0c0.1,0.1,0,0.2,0,0.3
		C264.4,135.3,264.3,135.3,264.3,135.2z"/>
	<path class="st16" d="M290.6,127.9c-1.9-1.2-3.7-2.9-5.4-5.1c-0.7-0.9-1.6-2.7-1.6-3.2c0-0.7,1-0.7,2.1-0.1c1.6,0.9,2.3,1.4,2.9,2
		c0.3,0.3,0.6,0.5,0.6,0.5c0.1,0,0.2,0.2,0.3,0.4c0.1,0.2,0.2,0.4,0.3,0.4c0.2,0,1,1,1.6,1.7c0.2,0.3,0.5,0.7,0.7,0.9
		c0.3,0.3,1,1.8,1,2.1c0,0.1,0.1,0.3,0.2,0.4c0.3,0.3-0.1,0.5-0.8,0.6C291.8,128.6,291.6,128.5,290.6,127.9z"/>
	<path class="st16" d="M299,119.3c-0.7-0.1-0.9-0.2-1.9-0.7c-1.2-0.6-1.6-0.9-2.1-1.4c-0.7-0.7-1.5-1.8-2-3
		c-0.4-0.9-0.4-1.1-0.4-1.7c0.1-0.4,0.1-0.8,0.2-0.8c0-0.1,0.4-0.1,0.8-0.1c0.8,0,1,0.1,2.7,1.5c0.8,0.7,3.4,3.2,3.9,3.9
		c0.5,0.6,0.8,1.3,0.8,1.7c0,0.3-0.1,0.4-0.5,0.6C300,119.5,300,119.5,299,119.3z"/>
	<path class="st16" d="M283.2,116.9c0-0.1-0.2-0.1-0.3-0.1c-0.1,0-0.2,0-0.3-0.1c-0.1-0.1-0.2-0.1-0.3-0.1c-0.1,0-0.2,0-0.3-0.1
		c-0.1-0.1-0.2-0.1-0.5,0c-0.5,0.1-0.6,0-0.4-0.2c0.2-0.2,0.6-0.2,0.7,0c0.1,0.1,0.2,0.1,0.2,0.1c0.1-0.1,0.2,0,0.3,0
		c0.2,0.2,0.7,0.2,0.9,0c0.2-0.2,0.5,0.2,0.4,0.4C283.6,117.1,283.3,117.1,283.2,116.9z"/>
	<path class="st16" d="M279.5,115.9c-0.1-0.2,0.2-0.3,0.3-0.2c0.2,0.1,0.1,0.4-0.1,0.4C279.6,116,279.5,116,279.5,115.9z"/>
</g>
<g id="layer6_1_">
	<path class="st17" d="M264.3,135.9c-0.1-0.1,0-0.5,0.1-0.9c0.2-0.9,0.2-1.2-0.1-1.2c-0.2,0-0.3-0.1-0.3-0.1c0-0.1-0.4-0.2-0.7-0.3
		c-0.3-0.1-0.7-0.2-0.7-0.3c-0.1-0.2,0.4-0.4,1.2-0.5c1.1-0.1,1.3-0.4,1.4-1.1c0.1-0.7,0.3-1,0.6-0.8c0.1,0.1,0.3,0.4,0.5,0.7
		s0.4,0.6,0.5,0.7c0.1,0,0.6,0,1.1,0c0.5-0.1,1-0.1,1,0c0,0.1-0.2,0.4-0.6,0.7c-0.4,0.4-0.7,0.7-0.7,0.7s0.2,0.4,0.4,0.8
		c0.6,1,0.4,1.1-0.8,0.7l-0.9-0.4l-0.5,0.4c-0.3,0.2-0.6,0.5-0.7,0.6C264.7,136,264.3,136.1,264.3,135.9z"/>
	<path class="st17" d="M253.4,135.7c0-0.1,0-0.5,0.1-0.9c0.2-0.9,0.2-1-0.4-1.1c-0.6-0.1-1.2-0.5-1.2-0.7c0-0.1,0.5-0.3,1-0.4
		c1-0.3,1-0.3,1.2-1.3c0.2-1.2,0.5-1.3,0.9-0.4c0.4,0.9,0.5,1,1.6,0.7c1.4-0.3,1.5-0.1,0.5,0.8c-0.9,0.9-0.9,0.9-0.1,1.9
		c0.6,0.8,0.1,0.9-1.4,0.3c-0.4-0.2-0.5-0.2-1.2,0.6C253.5,136,253.5,136,253.4,135.7z"/>
	<path class="st17" d="M245.8,131.5c-0.1-0.1,0-0.5,0.1-1c0.1-0.4,0.1-0.8,0.1-0.9c0,0-0.4-0.2-0.7-0.3c-0.4-0.1-0.7-0.4-0.7-0.5
		c0-0.1,0.4-0.3,0.9-0.5l0.9-0.3l0.1-0.8c0.2-1.1,0.4-1.3,0.7-0.7c0.1,0.2,0.3,0.6,0.5,0.8l0.2,0.3l0.9-0.3c1.2-0.5,1.3-0.3,0.4,0.8
		l-0.7,0.9l0.3,0.5c0.3,0.5,0.4,0.9,0.2,1.1c-0.1,0-0.5,0-0.9-0.2l-0.8-0.3l-0.7,0.7C246,131.6,245.9,131.7,245.8,131.5z"/>
	<path class="st17" d="M279.2,125.6c0,0,0-0.4,0-0.8c0.1-0.7,0.1-0.7-0.5-1c-0.3-0.1-0.6-0.3-0.7-0.4c-0.3-0.2,0-0.5,0.4-0.5
		c0.8,0,1.1-0.2,1.2-1c0.1-0.4,0.2-0.8,0.2-0.8c0.2-0.1,0.5,0.2,0.8,0.9c0.3,0.6,0.3,0.6,1.4,0.3c1.1-0.3,1.2-0.1,0.4,0.7
		c-0.4,0.3-0.6,0.7-0.6,0.7c0,0.1,0.2,0.4,0.4,0.6c0.2,0.3,0.3,0.6,0.3,0.7c-0.1,0.2-0.5,0.3-0.7,0.1c-0.1-0.1-0.4-0.2-0.7-0.3
		c-0.5-0.2-0.6-0.1-0.8,0.1C279.8,125.4,279.3,125.7,279.2,125.6z"/>
	<path class="st17" d="M242.6,124c-0.1-0.1,0-0.5,0.1-1c0.1-0.4,0.1-0.8,0.1-0.9c0,0-0.3-0.2-0.7-0.3c-0.4-0.1-0.7-0.3-0.7-0.4
		c0-0.1,0.4-0.3,0.9-0.5l0.9-0.3l0.1-0.7c0.1-1,0.3-1.2,0.6-1c0.1,0.1,0.3,0.3,0.4,0.5c0.2,0.7,0.3,0.7,1.1,0.4
		c0.4-0.2,0.8-0.3,0.9-0.2c0.2,0.1,0,0.6-0.6,1.2c-0.4,0.5-0.4,0.5,0.1,1.5c0.3,0.6,0.1,0.8-0.8,0.5l-0.8-0.3l-0.7,0.8
		C243,123.9,242.7,124.1,242.6,124z"/>
	<path class="st17" d="M279.7,117.7c0-0.1,0-0.4,0.1-0.8c0.2-0.8,0.1-0.9-0.7-1c-1.1-0.2-1-0.7,0.1-0.9c0.4-0.1,0.9-0.2,1-0.3
		c0.1-0.1,0.2-0.4,0.2-0.8c0.1-1.1,0.3-1.1,1-0.4c0.3,0.4,0.6,0.6,0.7,0.6c0.1,0,0.6-0.1,1.1-0.3c1.2-0.4,1.3-0.2,0.4,0.8
		c-0.8,0.9-0.8,0.7-0.1,1.8c0.4,0.5,0.1,0.6-1,0.4l-1-0.2l-0.5,0.4c-0.3,0.2-0.6,0.5-0.7,0.6C280.2,117.8,279.9,117.8,279.7,117.7z"
		/>
	<path class="st17" d="M243.6,115.3c0-0.1,0-0.3,0.1-0.6c0.1-0.3,0.1-0.7,0.1-0.9c0-0.3-0.1-0.4-0.3-0.4c-0.5,0-1-0.3-1-0.5
		c0-0.1,0.4-0.4,0.9-0.6c0.7-0.4,0.8-0.4,0.9-0.9c0.2-1,0.3-1.2,0.6-1.1c0.2,0.1,0.3,0.3,0.4,0.5c0.2,0.4,0.4,0.4,1.3,0.1
		c0.4-0.2,0.8-0.2,0.8-0.1c0,0.1-0.2,0.5-0.6,0.9l-0.6,0.8l0.3,0.7c0.2,0.4,0.3,0.7,0.2,0.8s-0.3,0-0.6,0c-0.9-0.2-1.1-0.2-1.7,0.6
		C244,115.3,243.7,115.5,243.6,115.3z"/>
	<path class="st17" d="M275.9,110.7c-0.1-0.1-0.1-0.4,0-0.8l0.1-0.6l-0.6-0.2c-0.8-0.2-1.2-0.4-1.2-0.6c0-0.1,0.5-0.2,0.9-0.3
		c1-0.2,1.2-0.4,1.3-1.2c0.1-0.4,0.2-0.7,0.2-0.7c0.1-0.1,0.4,0.2,0.7,0.5l0.5,0.6l0.9-0.3c0.7-0.3,0.9-0.3,1.1-0.2
		c0.1,0.1,0,0.3-0.5,0.9l-0.7,0.7l0.5,0.6c0.6,0.8,0.5,0.9-0.7,0.7l-0.9-0.2l-0.5,0.4C276.4,110.7,276,110.9,275.9,110.7z"/>
	<path class="st17" d="M249.2,107c0-0.1,0-0.5,0.1-0.9l0.2-0.7l-0.3-0.1c-0.2-0.1-0.4-0.1-0.5-0.1s-0.3-0.1-0.5-0.2l-0.4-0.2
		l0.3-0.3c0.2-0.1,0.4-0.3,0.6-0.3c0.1,0,0.4-0.1,0.7-0.1c0.4-0.1,0.5-0.2,0.6-0.7c0-0.3,0.2-0.7,0.3-0.8c0.2-0.2,0.2-0.2,0.7,0.4
		l0.5,0.6l0.8,0c0.9-0.1,1.2,0.1,0.8,0.5c-0.1,0.1-0.4,0.3-0.6,0.5l-0.3,0.3l0.3,0.6c0.5,0.9,0.3,1.1-0.9,0.6l-0.7-0.2l-0.6,0.6
		C249.5,107.1,249.4,107.2,249.2,107z"/>
	<path class="st17" d="M268.3,106.7c-0.1-0.1-0.1-0.4,0-0.6c0.1-0.4,0.1-0.5-0.5-0.8c-0.3-0.2-0.6-0.4-0.6-0.5
		c0-0.1,0.2-0.2,0.5-0.2c0.7-0.1,0.8-0.2,1-0.8c0.1-0.7,0.3-0.8,0.9-0.1l0.5,0.6l0.8-0.2c0.4-0.1,0.8-0.1,0.9-0.1
		c0.2,0.1-0.1,0.5-0.6,0.9l-0.5,0.4l0.4,0.6c0.5,0.8,0.3,1-0.7,0.6l-0.7-0.3l-0.5,0.4C268.5,106.9,268.4,106.9,268.3,106.7z"/>
</g>
<image style="overflow:visible;" width="300" height="158" xlink:href="Flag_of_the_United_States.svg.png"  transform="matrix(0.2468 0 0 0.2468 20.4024 147.9)">
</image>
<g id="eYqnLJ_1_">
	
		<image style="overflow:visible;" width="400" height="268" id="eYqnLJ" xlink:href="D41563B5FCB5D48.jpg"  transform="matrix(0.1642 0 0 0.1642 379.9642 97.5)">
	</image>
</g>
</svg>
